/* XPM */
static char *c26c4c6bdeaa47f887a63e3e27f9f338tfL6Qxa1RVS5tXQU[] = {
/* columns rows colors chars-per-pixel */
"20 20 150 2 ",
"   c #6E645A",
".  c #71675D",
"X  c #756B61",
"o  c #776D63",
"O  c #786E64",
"+  c #786E65",
"@  c #7C7268",
"#  c #7D7369",
"$  c #7E746A",
"%  c #80766C",
"&  c #81776D",
"*  c #82786E",
"=  c #82786F",
"-  c #83796F",
";  c #847A70",
":  c #857B71",
">  c #877D71",
",  c #867C72",
"<  c #877D73",
"1  c #887E74",
"2  c #887E75",
"3  c #897F75",
"4  c #8A8074",
"5  c #8A8076",
"6  c #8B8177",
"7  c #8C8278",
"8  c #8D8379",
"9  c #8D837A",
"0  c #8E847A",
"q  c #8E847B",
"w  c #8F857B",
"e  c #8F857C",
"r  c #90867C",
"t  c #91877D",
"y  c #91877E",
"u  c #92887E",
"i  c #93897F",
"p  c #958B7F",
"a  c #938980",
"s  c #948A80",
"d  c #958B81",
"f  c #968C82",
"g  c #978D83",
"h  c #988E84",
"j  c #998F85",
"k  c #9C8F87",
"l  c #9A9084",
"z  c #9A9086",
"x  c #9A9087",
"c  c #9B9187",
"v  c #9C9288",
"b  c #9D9389",
"n  c #9D938A",
"m  c #9F928A",
"M  c #9E948A",
"N  c #9E948B",
"B  c #9F958B",
"V  c #9F958C",
"C  c #A0938B",
"Z  c #A1948C",
"A  c #A0968C",
"S  c #A0968D",
"D  c #A1978D",
"F  c #A1978E",
"G  c #A3998D",
"H  c #A2988E",
"J  c #A2988F",
"K  c #A3998F",
"L  c #A49A8E",
"P  c #A49A90",
"I  c #A59B91",
"U  c #A69C92",
"Y  c #A69C93",
"T  c #A79D93",
"R  c #A99F93",
"E  c #A89E94",
"W  c #A89E95",
"Q  c #A99F95",
"!  c #A99F96",
"~  c #AAA096",
"^  c #AAA097",
"/  c #ABA197",
"(  c #ADA397",
")  c #ADA098",
"_  c #ACA298",
"`  c #ACA299",
"'  c #ADA399",
"]  c #ADA39A",
"[  c #AEA498",
"{  c #AEA49A",
"}  c #AFA59B",
"|  c #AFA59C",
" . c #B0A39B",
".. c #B0A69A",
"X. c #B1A79B",
"o. c #B0A69C",
"O. c #B1A79D",
"+. c #B2A89E",
"@. c #B3A99F",
"#. c #B3A9A0",
"$. c #B4AAA0",
"%. c #B5ABA1",
"&. c #B6ACA2",
"*. c #B8AEA2",
"=. c #B9ACA4",
"-. c #B8AEA4",
";. c #B9AFA5",
":. c #BAB0A4",
">. c #BAB0A6",
",. c #BAB0A7",
"<. c #BBB1A7",
"1. c #BDB0A8",
"2. c #BCB2A8",
"3. c #BDB3A9",
"4. c #BEB4A8",
"5. c #BEB4AA",
"6. c #BFB5AB",
"7. c #C0B6AA",
"8. c #C0B6AC",
"9. c #C1B7AD",
"0. c #C3B9AD",
"q. c #C2B8AE",
"w. c #C3B9AF",
"e. c #C4BAB0",
"r. c #C5BBB1",
"t. c #C5BBB2",
"y. c #C6BCB2",
"u. c #C6BCB3",
"i. c #C7BDB3",
"p. c #C8BEB4",
"a. c #C9BFB5",
"s. c #C9BFB6",
"d. c #CAC0B6",
"f. c #CAC0B7",
"g. c #CBC1B7",
"h. c #CBC1B8",
"j. c #CCC2B8",
"k. c #CDC3B9",
"l. c #CEC4BA",
"z. c #CFC5BB",
"x. c #D0C6BC",
"c. c #D0C6BD",
"v. c #D2C8BF",
"b. c #D4CAC1",
"n. c #D7CDC3",
"m. c #D9CFC5",
"M. c #E0D6CC",
"N. c #E1D7CD",
"B. c #E2D8CE",
"V. c #E3D9CF",
/* pixels */
"} _ 3.3.>.@.@.d _ ;.@.3.T r.z.q.>.j.q.r.",
"r 6 b r - 6 @.>.;.@.o.%.; b _ B T b f B ",
"} >./ 3.o.h a.>.>.6.3./ # b T h D 1 D >.",
"@.&.6.o.B 6 7 } 3.} _ _ b T / 3.>.h o.3.",
"K _ f K >.} / i.i.r.z.r.I T D u E 1 D 3.",
"I T >.} } T & 6./ K / T < } V.j.z.D r B ",
"B h f _ / E K %.i._ D ;.I 1 K B h c 7 u ",
"%.K %.m.g.z.j.a.i.m.h 6 / T @.E 7 q.3._ ",
"D D d q.>.} _ @.K E . K ;.%.o./ & K I E ",
"u 6.&.d 7 u r d B w d K o.6 ; E / E _ T ",
"K g.g.n.q.6.7 8.;.%.q.%.} 8.I j.M.r.z.i.",
". K / o.b K - @.>.} E E I / # c T h B f ",
"B I B 1 %.j.a.T B o.B - E %.g.>.+ f c B ",
";.;.6.E _ E @.B r B 6 ;.V.>.a.6.r 3.>.>.",
"h D K c 7 @./ } @.3.7 B / D d @ X 1 g x ",
"K r E D b b < T B f < o I I %.%.c a _ #.",
"D C !  .=.m k 1.*.*.o.3 7.0.X.7.Z B J W ",
"E E x q W r = ! E ( [ > p G G j o B _ a ",
"D a V J ] V q 1 #.W V ; . u r.1.>._ / #.",
"s.o.t.s.t.s.s.#.a.p.c.B.@.7.B.a.b.v.z.c."
};
