/* XPM */
static char *_8a016208f5e4b5aa060125e7612cca1TKduYnxmltKXR7Q5[] = {
/* columns rows colors chars-per-pixel */
"20 20 167 2 ",
"   c #453B32",
".  c #4C4238",
"X  c #4D443B",
"o  c #544A40",
"O  c #554B41",
"+  c #574D44",
"@  c #594F45",
"#  c #584F46",
"$  c #5A5047",
"%  c #5B5147",
"&  c #5C5248",
"*  c #5D534A",
"=  c #5F554B",
"-  c #62554D",
";  c #60564C",
":  c #60564D",
">  c #61574D",
",  c #61584F",
"<  c #62584E",
"1  c #635950",
"2  c #635852",
"3  c #645A50",
"4  c #655B51",
"5  c #645B52",
"6  c #665C52",
"7  c #675D53",
"8  c #675D54",
"9  c #685E54",
"0  c #695F55",
"q  c #685F56",
"w  c #6A6056",
"e  c #6B6157",
"r  c #6D6357",
"t  c #6C6258",
"y  c #6D6359",
"u  c #6C635A",
"i  c #6E645A",
"p  c #6E645B",
"a  c #6F655B",
"s  c #6E655C",
"d  c #6F655C",
"f  c #6F665D",
"g  c #70665C",
"h  c #70665D",
"j  c #71675D",
"k  c #71675E",
"l  c #71685F",
"z  c #72685E",
"x  c #72685F",
"c  c #73695F",
"v  c #736960",
"b  c #766961",
"n  c #746A60",
"m  c #756B61",
"M  c #746B62",
"N  c #756B62",
"B  c #746C61",
"V  c #766C62",
"C  c #776D63",
"Z  c #766D64",
"A  c #776D64",
"S  c #776E65",
"D  c #786E64",
"F  c #796F65",
"G  c #786F66",
"H  c #796F66",
"J  c #7C6F67",
"K  c #7A7066",
"L  c #7A7067",
"P  c #7B7167",
"I  c #7C7266",
"U  c #7B7168",
"Y  c #7B7269",
"T  c #7D7068",
"R  c #7C7268",
"E  c #7C7269",
"W  c #7D7369",
"Q  c #7C736A",
"!  c #7E746A",
"~  c #7E746B",
"^  c #7F756B",
"/  c #7F756C",
"(  c #80766C",
")  c #81776D",
"_  c #82786E",
"`  c #83796F",
"'  c #847A6E",
"]  c #827970",
"[  c #837A71",
"{  c #847A70",
"}  c #857B71",
"|  c #847B72",
" . c #877D71",
".. c #867C72",
"X. c #877D73",
"o. c #867D74",
"O. c #877E75",
"+. c #887E72",
"@. c #887E74",
"#. c #897F75",
"$. c #887F76",
"%. c #898077",
"&. c #8A8076",
"*. c #8B8177",
"=. c #8C8278",
"-. c #8D8379",
";. c #8D837A",
":. c #8B847A",
">. c #8D847B",
",. c #8E847A",
"<. c #8F857B",
"1. c #8F857C",
"2. c #90837A",
"3. c #90867A",
"4. c #93877B",
"5. c #90867C",
"6. c #90867D",
"7. c #91877D",
"8. c #91887F",
"9. c #92887E",
"0. c #93897F",
"q. c #968A7E",
"w. c #938A81",
"e. c #948A80",
"r. c #948A81",
"t. c #958B81",
"y. c #948B82",
"u. c #958C83",
"i. c #948D83",
"p. c #968C82",
"a. c #968C83",
"s. c #978D83",
"d. c #978D84",
"f. c #978E85",
"g. c #988E82",
"h. c #9A8E82",
"j. c #988E84",
"k. c #998F85",
"l. c #9A9086",
"z. c #9B9187",
"x. c #9A9188",
"c. c #9B908A",
"v. c #9E9188",
"b. c #9D9389",
"n. c #9C938A",
"m. c #9D948B",
"M. c #9E948A",
"N. c #9E958C",
"B. c #9F968D",
"V. c #A1978B",
"C. c #A1978D",
"Z. c #A4978F",
"A. c #A2988E",
"S. c #A3998F",
"D. c #A49A90",
"F. c #A49A91",
"G. c #A59B91",
"H. c #A59B92",
"J. c #A69C92",
"K. c #A89E94",
"L. c #A89E95",
"P. c #ADA195",
"I. c #ACA299",
"U. c #AEA49A",
"Y. c #AFA59B",
"T. c #B1A79D",
"R. c #B2A89E",
/* pixels */
"} V <.....@.R < } *.^ 9.D l.l.5.5.a.$.c.",
"6 < c y > 6 =.<.} *.....O _ =.n H S f a.",
"*..._ ..K n p.p.j.t.=.@.o c V i y = u c.",
"_ <.5.<.^ = 9 R =...^ R 9 ( ^ <.w.v O.y.",
"( K 6 6 ( _ D J.p.M.A.l.n } D 3 v $ Y c.",
"K @.<.<.<.R 3 p.*.D ^ @.> _ R.J.H.H , w.",
"D i 9 D D D V =.=...V =.n e ( n R v X ] ",
"} K } T.C.b.G.j.l.Y.y 6 ^ K ( K 8 5.| N.",
"( 9 i l.9.@.@...} K . K <.5...( > b ~ a.",
"c t.j.c = > g i n < 9 D _ % % ^ T ~ H 1.",
"D j.5.A.p.*.y =...*.5.<._ <.( K.I.G.f.I.",
"O _ @.<.V c > *.*._ K ..D R @ V M n f O.",
"n c V % ..b.j.R D } n > V *.p.<.* f S >.",
"t.( 5.n ..*.@.n e g < t.T.j.p.9.5 Q $.B.",
"V R ..c 3 R D ..} 5.> ^ R ( 9 o # w f :.",
"D 6 V y K i 6 ( c c o & V K @.} 8 f M f.",
"V V ( } 9.n e <.+.5.A 2 c.=.#.2.g n S w.",
"*.V c e n 3 6 _ I @.( 2 n R } r & c D ] ",
"K y n D ^ i 9 6 ' R n o   y b.+.' ..] f.",
"5.K =.<.5.<.*.R h.4.b.G.T 2.P.t.V.h.<.K."
};
