/* XPM */
static char *_36a502454564c59805653bccd0d9e02IfvxICwqpkCWRxMn[] = {
/* columns rows colors chars-per-pixel */
"20 20 202 2 ",
"   c #170900",
".  c #23160D",
"X  c #34281C",
"o  c #37291E",
"O  c #372B1F",
"+  c #3B2D22",
"@  c #3D3027",
"#  c #403229",
"$  c #423429",
"%  c #42362A",
"&  c #43372B",
"*  c #44362B",
"=  c #42352C",
"-  c #44382C",
";  c #46382D",
":  c #473B2F",
">  c #463930",
",  c #483C30",
"<  c #493D31",
"1  c #4A3C31",
"2  c #4B3D32",
"3  c #4A3E32",
"4  c #4B3F33",
"5  c #4C3E33",
"6  c #4D3F34",
"7  c #4C3E35",
"8  c #4C4034",
"9  c #4E4035",
"0  c #4F4136",
"q  c #4E4236",
"w  c #4F4337",
"e  c #4E4138",
"r  c #504237",
"t  c #514338",
"y  c #504239",
"u  c #50433A",
"i  c #504438",
"p  c #514539",
"a  c #524439",
"s  c #53453A",
"d  c #52463A",
"f  c #54463B",
"g  c #55473C",
"h  c #54473E",
"j  c #54483C",
"k  c #55493D",
"l  c #56483D",
"z  c #57493E",
"x  c #564A3E",
"c  c #594B3E",
"v  c #584A3F",
"b  c #564940",
"n  c #594B40",
"m  c #584C40",
"M  c #594D41",
"N  c #5A4C41",
"B  c #594C43",
"V  c #5A4E42",
"C  c #5B4F43",
"Z  c #5C4E43",
"A  c #5B4D44",
"S  c #5B4E46",
"D  c #5D4F44",
"F  c #5D5145",
"G  c #5E5045",
"H  c #5D5047",
"J  c #5F5146",
"K  c #5E5246",
"L  c #5F5347",
"P  c #5E5148",
"I  c #605247",
"U  c #615348",
"Y  c #605448",
"T  c #615549",
"R  c #625449",
"E  c #61544B",
"W  c #63554A",
"Q  c #62564A",
"!  c #64564B",
"~  c #65574C",
"^  c #64574E",
"/  c #66584B",
"(  c #64584C",
")  c #65594D",
"_  c #66584D",
"`  c #67594E",
"'  c #675B4F",
"]  c #695B4E",
"[  c #685A4F",
"{  c #675A51",
"}  c #675A52",
"|  c #695B50",
" . c #685B52",
".. c #685C50",
"X. c #695D51",
"o. c #6A5C51",
"O. c #6B5D52",
"+. c #6B5F53",
"@. c #6C5E51",
"#. c #6D5F52",
"$. c #6C5E53",
"%. c #6A5D54",
"&. c #6D5F54",
"*. c #6E6053",
"=. c #6C6054",
"-. c #6D6155",
";. c #6E6055",
":. c #6D6057",
">. c #6F6156",
",. c #6F6158",
"<. c #706257",
"1. c #716358",
"2. c #706458",
"3. c #716559",
"4. c #736558",
"5. c #726459",
"6. c #71645B",
"7. c #73655A",
"8. c #72665A",
"9. c #73675B",
"0. c #746659",
"q. c #74665B",
"w. c #73665D",
"e. c #75675C",
"r. c #74685C",
"t. c #75695D",
"y. c #76685D",
"u. c #77695E",
"i. c #776B5F",
"p. c #786A5D",
"a. c #786A5F",
"s. c #776D63",
"d. c #776D64",
"f. c #796B60",
"g. c #7A6C61",
"h. c #7B6D62",
"j. c #7A6E62",
"k. c #7C6E61",
"l. c #7D6F62",
"z. c #7C6E63",
"x. c #7A6D64",
"c. c #7B6E65",
"v. c #7D6F64",
"b. c #7C7064",
"n. c #7D7165",
"m. c #7E7065",
"M. c #7F7166",
"N. c #7F7367",
"B. c #7C7268",
"V. c #7F756B",
"C. c #807267",
"Z. c #80736A",
"A. c #807468",
"S. c #817569",
"D. c #81746B",
"F. c #83756A",
"G. c #82766A",
"H. c #83776B",
"J. c #84766B",
"K. c #82756C",
"L. c #81776E",
"P. c #85776C",
"I. c #82786F",
"U. c #84786C",
"Y. c #85796D",
"T. c #86786D",
"R. c #87796E",
"E. c #86786F",
"W. c #887A6F",
"Q. c #8A7C6F",
"!. c #867970",
"~. c #857B71",
"^. c #867C72",
"/. c #897B70",
"(. c #887B72",
"). c #8A7C71",
"_. c #8B7D72",
"`. c #8C7E73",
"'. c #8D7F74",
"]. c #8C8074",
"[. c #8E8075",
"{. c #8F8377",
"}. c #8E847A",
"|. c #908275",
" X c #918378",
".X c #90837A",
"XX c #918579",
"oX c #928479",
"OX c #91847B",
"+X c #95877A",
"@X c #94867B",
"#X c #94887C",
"$X c #96887D",
"%X c #97897E",
"&X c #988A7F",
"*X c #978A81",
"=X c #9A8E82",
"-X c #9D8F86",
";X c #9D9389",
":X c #A29487",
">X c #A4968B",
",X c #A1978E",
/* pixels */
"A.i.Y.].n.n.A.=.Y.v.F._.q.>X).W.'.).!.*X",
"% , M q X q i.>.5.>.$.W o $.8.I n S > D.",
"i.+.8.i.T ) z.A.n.F.q.a.; n I 6 D f e }.",
"f.8.8.+.M - s i.z.v.~ &.g ~ <.g.g.g &.D.",
"M ~ f g 5.5.&.P.C.F.).v.v $.W f D ; } OX",
"I 8.<.&.5.Z v C.5.Z 5.e.6 u.$XoXoX>.+ (.",
"~ t t [ +.I ~ z.F.5.~ >.g g ~ W P D . b.",
"$.I v.&X_._.oXC.F.@Xz 6 ` ~ W U 6 i...}.",
"W f I F.a.8.<.&.&.I X ' +.f.8.~ , L ^ ~.",
"v C.W.I 2 2 Z v M q s T ' - * [ ..>.H V.",
"<.W.g._.C.<.v z.+.i.f.>.<.a.[ $X=XOXx.;X",
"2 <.<.u.G v 2 z.8.+.( ' ~ W $ T L L w d.",
"Z f I 1 z._.W.[ ( ' ( , W q.).a., m b B.",
"a.` a.W a.a.q.I k q 8 F.*XF.W.g.w ..%.}.",
"W ` $.v 2 W W =.=.r.* =.[ o.r + & h b B.",
"G a W v W n r ) k L o : ` o.$.<.w m b ^.",
"G G =.=.i.F j 9.' 0.[ a W.q.<.p.v I S V.",
"i.( L j M 8 w +.$.0.W 2 Z <.$.v = U } d.",
"Y s F F L s , , ( / k %   t z.z.e.w.^ !.",
"F.8.n.A.G.G.A.9.@XQ.].-X5.oX:X|.$X].K.,X"
};
