/* XPM */
static char *a71d2813f1014e0c92180e4f93e25a20a5SVRtjpKJT3FuQo[] = {
/* columns rows colors chars-per-pixel */
"5 5 20 1 ",
"  c #625449",
". c #63554A",
"X c #63574B",
"o c #65584F",
"O c #695B50",
"+ c #6A5C51",
"@ c #695C53",
"# c #6A5E52",
"$ c #6C5E53",
"% c #705F55",
"& c #6D6155",
"* c #6F6156",
"= c #6F6259",
"- c #706257",
"; c #716358",
": c #726459",
"> c #73655A",
", c #72645B",
"< c #72665A",
"1 c #766960",
/* pixels */
"%:::,",
"O$$+#",
"--:*=",
"  XXo",
"O+*:1"
};
