/* XPM */
static char *_dcf7c5910584784e8e056b4f4e14733Tsk1O6wZmZ9mVSVw[] = {
/* columns rows colors chars-per-pixel */
"20 20 138 2 ",
"   c #5B5147",
".  c #655B52",
"X  c #675D54",
"o  c #685E55",
"O  c #695F56",
"+  c #6B6158",
"@  c #6A615A",
"#  c #6C6258",
"$  c #6C6259",
"%  c #6E645B",
"&  c #6F655C",
"*  c #70665D",
"=  c #71675E",
"-  c #72685F",
";  c #736960",
":  c #756B62",
">  c #766C63",
",  c #776D63",
"<  c #786E65",
"1  c #796F66",
"2  c #7A7067",
"3  c #7B7167",
"4  c #7B7168",
"5  c #7C7269",
"6  c #7D736A",
"7  c #7E746A",
"8  c #7E746B",
"9  c #7F756C",
"0  c #7E756E",
"q  c #80766D",
"w  c #81776D",
"e  c #81776E",
"r  c #82786F",
"t  c #837970",
"y  c #837A73",
"u  c #847A71",
"i  c #857B71",
"p  c #857B72",
"a  c #857C73",
"s  c #867C73",
"d  c #857C75",
"f  c #877D74",
"g  c #877E77",
"h  c #887E75",
"j  c #897F75",
"k  c #897F76",
"l  c #887F78",
"z  c #8A8077",
"x  c #8B8178",
"c  c #8A817A",
"v  c #8C8279",
"b  c #8D8379",
"n  c #8C837A",
"m  c #8D837A",
"M  c #8E847B",
"N  c #8F857C",
"B  c #8E857E",
"V  c #90867C",
"C  c #90867D",
"Z  c #91877D",
"A  c #91877E",
"S  c #92887F",
"D  c #93897F",
"F  c #938980",
"G  c #928982",
"H  c #948A81",
"J  c #958B81",
"K  c #948B82",
"L  c #958B82",
"P  c #968C83",
"I  c #958C85",
"U  c #978D84",
"Y  c #968D86",
"T  c #988E84",
"R  c #988E85",
"E  c #988F86",
"W  c #998F86",
"Q  c #9A9086",
"!  c #9A9087",
"~  c #9B9187",
"^  c #9B9188",
"/  c #9A918A",
"(  c #9C9289",
")  c #9D938A",
"_  c #9E948A",
"`  c #9E948B",
"'  c #9C938C",
"]  c #9D948D",
"[  c #9F958C",
"{  c #9E958E",
"}  c #A0968D",
"|  c #A1978E",
" . c #A1988F",
".. c #A2988E",
"X. c #A2988F",
"o. c #A29990",
"O. c #A39990",
"+. c #A29992",
"@. c #A39A93",
"#. c #A49A90",
"$. c #A49A91",
"%. c #A59B92",
"&. c #A69C92",
"*. c #A69C93",
"=. c #A59C95",
"-. c #A79D94",
";. c #A79E95",
":. c #A89E94",
">. c #A89E95",
",. c #A99F96",
"<. c #A89F98",
"1. c #AAA096",
"2. c #AAA097",
"3. c #A9A099",
"4. c #ABA198",
"5. c #ACA298",
"6. c #ACA299",
"7. c #ADA39A",
"8. c #AEA49B",
"9. c #ACA39C",
"0. c #AFA59C",
"q. c #B0A69D",
"w. c #B2A89F",
"e. c #B3A99F",
"r. c #B0A7A0",
"t. c #B3A9A0",
"y. c #B4AAA1",
"u. c #B5ABA1",
"i. c #B5ACA3",
"p. c #B6ACA3",
"a. c #B4ABA4",
"s. c #B7ADA4",
"d. c #B8AEA5",
"f. c #B9AFA6",
"g. c #BAB0A7",
"h. c #BBB1A8",
"j. c #BBB2AB",
"k. c #C2B8AF",
/* pixels */
"L k %.) ! W C 4 M %.L ^ S ,.,.%.[ 4.U 9.",
"r 1 s 9 ; 2 ) ) U U W ! % z ! x S N y =.",
"v L ) O.F u ,.6.6.} %.^ o 9 N r y > 0 3.",
"X.*.^ P M > 9 N ^ W P M 6 L W [ =.z B 3.",
"f M s u W C k t.,.0.0.,.N M e 6 y ; x i.",
"M W ^ ! %.! 6 *.W C N C 8 C g.h.t.x 0 +.",
"u u u S x k e S ) ) M P z e P u z 4 @ G ",
"! C S f.6.0.f.*.q.p.6 6 P s L M 0 [ E 3.",
"C e f 6.%.) P W W C . N ` X.U L : x G =.",
"6 O.,.e - : t t e ; 1 x L * * N z N z { ",
"k 4.} w.6.X.9 ) ) ` -.} W } C q.h.i.3.j.",
"o ^ ) } z k * W ` L v U N S & s z x y I ",
"e t x o ! 8.2.N z P z $ x W 6.[ = y z ^ ",
"[ L %.k ^ ` ^ z r u 6 } k.O.,.} > S ' q.",
"k F ! u 6 C v W U [ 1 k P M u + @ 8 z { ",
"z 4 k 9 C u 1 S z u * X N s ` S 8 y z @.",
"f v L P *.f 6 [ ! ~ Z , :...} ..r b n X.",
"F k t 2 f 1 1 P D T T 3 z Z Z w - r s T ",
"C u M v U k 6 6 ! b s $   7 X.} D Q D 2.",
"` v ) ) X.` U f :.X.5.w.Z _ p.5.q.7.X.p."
};
