/* XPM */
static char *_e0892310c0d48edb914a2e8b39ae2daAp8mLH314wlWeQ30[] = {
/* columns rows colors chars-per-pixel */
"50 50 165 2 ",
"   c #E70101",
".  c #EA0001",
"X  c #EB000D",
"o  c #EA0213",
"O  c #EC0518",
"+  c #EA0D1B",
"@  c #EC121E",
"#  c #ED0E20",
"$  c #EC1221",
"%  c #EB1B24",
"&  c #EB1E29",
"*  c #EA2127",
"=  c #EB232B",
"-  c #EB282E",
";  c #EC2C33",
":  c #EC3137",
">  c #EC343A",
",  c #EB3A3D",
"<  c #EB3D42",
"1  c #EC4245",
"2  c #ED4449",
"3  c #EC4B4E",
"4  c #F0454B",
"5  c #ED4D52",
"6  c #F04F54",
"7  c #EC5355",
"8  c #ED5559",
"9  c #EC595C",
"0  c #ED5D61",
"q  c #F05960",
"w  c #ED6364",
"e  c #EA6866",
"r  c #ED656A",
"t  c #ED6A6D",
"y  c #EE7577",
"u  c #EE777A",
"i  c #EE7B7C",
"p  c #F17577",
"a  c #F17B7D",
"s  c #ED807F",
"d  c #EE7E81",
"f  c #F07E82",
"g  c #EE8484",
"h  c #EE8886",
"j  c #EE8788",
"k  c #EE8C8C",
"l  c #F18787",
"z  c #F08887",
"x  c #F08689",
"c  c #F18A8C",
"v  c #EF908E",
"b  c #F2908F",
"n  c #EF8F91",
"m  c #F18C91",
"M  c #EE9495",
"N  c #EF9499",
"B  c #F19294",
"V  c #F2959A",
"C  c #F19C9C",
"Z  c #F3A39F",
"A  c #EEA2A1",
"S  c #EFA9A7",
"D  c #F2A5A5",
"F  c #F2A8A7",
"G  c #F2A6A9",
"H  c #F2ACAC",
"J  c #F1B1AF",
"K  c #F3AEB1",
"L  c #F3B4B4",
"P  c #F5B6B8",
"I  c #F4BBBC",
"U  c #F4C2BE",
"Y  c #F8C0BF",
"T  c #F4BDC1",
"R  c #EFC6C4",
"E  c #F5C5C5",
"W  c #F8C5C6",
"Q  c #F5C9C6",
"!  c #F8C8C6",
"~  c #F5C6C9",
"^  c #F8C6CA",
"/  c #F6CBCC",
"(  c #F8CBCC",
")  c #F5D0CE",
"_  c #F8D1CF",
"`  c #F6CED1",
"'  c #F9CED2",
"]  c #F6D2D2",
"[  c #F9D2D3",
"{  c #F7D9D7",
"}  c #FAD8D6",
"|  c #F7D7D8",
" . c #F9D7D8",
".. c #F6DBDA",
"X. c #F9DBDC",
"o. c #F7E2DF",
"O. c #F9E2DF",
"+. c #FADEE1",
"@. c #F7E3E1",
"#. c #FAE2E2",
"$. c #F9E4E3",
"%. c #FCE4E2",
"&. c #FAE1E4",
"*. c #FAE5E4",
"=. c #FAE4E7",
"-. c #F9E7E7",
";. c #FCE4E4",
":. c #FAE3E4",
">. c #FAE9E7",
",. c #FBE7E9",
"<. c #F9E9E9",
"1. c #F9EFED",
"2. c #FAEEEE",
"3. c #FCEEED",
"4. c #FDEFEE",
"5. c #FBECEC",
"6. c #FAF0EF",
"7. c #FBF0EE",
"8. c #FBF1EF",
"9. c #FBEFF1",
"0. c #FDECF2",
"q. c #FCEDF1",
"w. c #FAF0F1",
"e. c #F9F3F3",
"r. c #FCF2F1",
"t. c #FDF1F3",
"y. c #FCF0F2",
"u. c #FDF3F2",
"i. c #FEF2F2",
"p. c #FCF4F1",
"a. c #FFF4F2",
"s. c #FCF4F2",
"d. c #FDF3F4",
"f. c #FFF3F5",
"g. c #FEF3F7",
"h. c #FAF6F5",
"j. c #FDF4F5",
"k. c #FDF4F3",
"l. c #FDF8F6",
"z. c #F9F7F8",
"x. c #FFF6FB",
"c. c #FDF6F9",
"v. c #FDFEF9",
"b. c #FCFEFB",
"n. c #FCFFFB",
"m. c #FEFFFA",
"M. c #FEFFFB",
"N. c #FBFFFE",
"B. c #FBFFFF",
"V. c #FDFDFD",
"C. c #FFFCFD",
"Z. c #FCFEFD",
"A. c #FCFFFD",
"S. c #FFFEFC",
"D. c #FFFFFD",
"F. c #FDFDFF",
"G. c #FEFDFF",
"H. c #FFFDFF",
"J. c #FDFFFE",
"K. c #FEFEFE",
"L. c #FEFEFF",
"P. c #FFFEFF",
"I. c #FEFFFF",
"U. c white",
"Y. c #FEFEFE",
/* pixels */
"% =   0 ( ~ ] H . ; . b ] ^ ] j   ; . L _ ( ^ 7 X o 5 Q ~ / L   ; . l ( Q ` B   :   G _ ~ ` w   = % ",
"= -   w ( ( ` H . > . b ] ~ / h . : . L _ / / 7 + @ 5 / ( ` L o ;   g ] ~ [ B . > . G ] ~ ( w   - - ",
"  . . 8 ~ E / G . +   j / E ' g   O . K / ~ E 2     1 E ^ ( J   O   a / W ( k   @   F ' ^ ( q . X . ",
"w 9 8 s } [ ..I 7 w 5 D X.] ..C 5 r 8 Y  .] [ u 9 8 p ] [  .W 8 r 5 V ..] ..G 5 r 5 I ..] ] g 7 0 0 ",
"~ ' Q { D.D.D.9.^ / Q $.D.G.D.#.W ( Q u.D.D.D.] ( ( ] D.D.N.a.~ ( Q &.D.D.D.=.E ( Q 2.D.N.D.| ~ / / ",
"Q ~ ~ [ D.D.D.2.E ( ^ O.N.b.D.X.E ( ~ e.D.D.D.` Q ^ / D.D.D.a.E ~ Q #.D.G.D.;.E / W w.D.D.D.] Q / ! ",
"/ ] / ..D.D.D.g./ ] ( <.D.N.D.;.( ] / x.D.D.D...` / ..D.D.D.z._ ] ~ $.D.D.D.>.( ] ( a.D.N.D.X.( ] ] ",
"H H G I w.w.g.X.G K G ( 9.4.e.( D H S :.w.q.2.P H H L 4.6.h.:.G K G ^ h.0.g.] G J D X.a.q.u.I G H H ",
"      7 ~ E / D . X   l ~ E ( i .   X K ~ / W 1   . , E E ` K   X . a ( E ( k . X   D ~ E ( 8   . . ",
": > # w / ( ] L X <   B ] / | c . , + L ] ~ ~ 9 = = 8 / ( ' L $ ,   x ] Q _ B   <   H ] ~ ( r + > : ",
"  . . 6 R ^ / G .   . l / E / i . . . K ~ Q E ,     : E E ~ J       i ( E / j   . . D / E Q 6   .   ",
"c m c Z $.@.=./ x B x I <.;.<.P c B c [ =.$.&.C m m C &.$.>.} c M j P <.+.<.U c B l _ <.:.;.D c B m ",
"] ] / ..D.D.D.g.( ] ~ <.D.D.D.=.( ` / C.D.D.G.| ] /  .D.D.D.x.] ] ~ *.D.D.D.5.( ] ~ a.D.C.D. ./ _ ( ",
"Q Q E ] D.D.N.q.E / E O.D.N.D.+.E ^ E 6.D.D.V.` E ^ / D.D.D.u.E ~ E X.D.V.N.&.T ( W 2.D.D.G.| E ~ ~ ",
"_ ` / X.D.D.D.h.( [ ` 5.D.D.D.&./ _ / C.D.D.G.} / ]  .D.D.D.h.( ] ( =.D.G.D.5.` ' ( a.D.b.D.+.` ] ] ",
"c x d C +.+.$.( i c i P $.X.$.L i c g / $.X.+.M g l B o.#.$.` g h i L $.X.=.I i k d ( $.+.@.C d c h ",
". .   5 ^ E ~ G     . j ( E ` i     . H ( E Q <     > E W / H       i / E / c     X Z / E ^ 7 .   . ",
"; : O w / / ] L . ,   B ] E ] j   , O L ] / ( 8 & & 8 ~ ( _ L @ , . x _ ~ ' M   < . H _ ( / e o : ; ",
"  X   8 ~ E / S . +   c / ^ / g X + . H ( E E 2   . 1 E Q ( L   o   d ` W / c . $   D ( Q Q 9   X . ",
"L L J U d.j.x.#.H L H } c.6.z.) H L K >.j.a.g.I L K I w.a.j.;.L L H ` h.u.z.{ H L H +.v.g.w.E K L L ",
"( _ / } N.D.D.w./ ' ~ >.D.D.D.&.Q ] / j.N.D.D.} ` / } D.D.D.c.( ] ( $.D.D.D.>.~ _ ( j.D.b.b.../ ( _ ",
"~ / ! ] D.D.D.q.( / Q :.D.G.D.+.E / E a.D.D.D.] ~ ~ ] z.b.D.d.~ ( Q +.D.C.D.;.E / E 2.D.D.D.] ^ ( ~ ",
"~ Q ^ ] N.G.D.6.E / E :.D.N.D.+.W ( W w.D.D.V.] ^ Q ] D.D.N.d.~ ~ E X.D.C.D.:.E ( E 9.D.G.D.[ Q ~ ~ ",
"7 8 2 u | / { L < 8 < C  .` } M , 9 2 I | ` ] t 3 3 t ` ` ] I 3 9 , V | `  .A , 9 1 L  .( ] i 2 8 7 ",
"X + . 9 ~ ~ / H   =   c ] W / g . &   J / / ^ 5     2 E ~ / L   %   f ] ! _ b . = . G ] ! / 0   @ X ",
"o @   9 ( ^ _ G   = . c _ E ( l . &   L / ^ E 5 . . 3 E ( ( L   &   i ] ^ / m   =   G / Q ~ q   @ o ",
"5 7 1 y ` ] { L , 8 : Z { / } V > 8 1 I ] ] / t 4 3 r ' ]  .I 1 7 > m | ( } C : 9 , L [ ' ] u 1 7 5 ",
"^ ~ E ] D.D.D.6.^ ~ Q @.D.C.N.o.E ^ E 2.N.D.b.` W Q ( v.C.D.u.W / ^ O.D.b.D.@.E ! E u.D.D.z.] Q Q ^ ",
"/ ~ ( ] N.D.D.q.Q ( E =.D.G.D.#.~ / W a.D.N.D.] / ~ ` N.b.D.g.^ ( Q X.D.G.D.;.E / E 6.D.D.D.] ~ ( ( ",
"] / ( } D.D.D.d.( [ ~ <.D.D.D.#.~ ] / l.D.D.D.] / ( | D.D.b.c./ ] ~ $.D.D.D.<.Q ] ( g.D.D.b.X.( / / ",
"L L L U j.w.z.#.K L H } x.u.j.[ L L L >.l.j.h.I L L I a.g.x.<.K L K / v.w.j. .L P H o.x.g.g.E L P L ",
"  X . 9 ~ ^ ' S   @   j ` E ~ l   #   K ~ / ^ 2     2 E E ( L   +   d / E _ c . %   F / E ( 9   X . ",
"; : O w ( ~ ] L   , . B [ E ` c . , O L ] ~ ( 8 & & 8 ! / ) L + , . x ] ( ' M   , . H ] / / r o ; ; ",
".     5 Q E ~ D .     c ( W ( i   .   G ( ! W <     > E E ( K       i / E / c   . X D ( Q E 7 .     ",
"g g a C +.@.@.( i c u I =.X.:.J a j a ` $.@.+.M f g B X.&.&._ i j i H :.X.$.I y x a ! :.X.#.C i g g ",
"] [ / X.D.D.D.w.( [ ~ >.D.N.D.&./ [ / x.D.D.D. ./ / | D.D.D.h._ ` ) &.D.D.b.,./ ] / a.D.N.D.X./ _ ] ",
"Q ^ E _ D.N.D.q.W ^ E ;.D.D.D.X.E ! E 4.D.G.b.` E / ( D.b.b.e.E ( W X.D.b.D.;.E ~ E 2.D.D.D.] ^ E Q ",
"] ` / X.D.D.D.a./ ] / >.D.D.D.&./ ] ' c.G.D.D. ./ / } b.D.D.x._ ] / &.D.N.D.<.( ] ( u.D.D.D.X.` ] ' ",
"M B c D =.&.<.] k M x I <.$.<.I c B n } >.&.;.A B c C :.&.>.} m M c P >.&.2.T c V j ' <.;.=.S k B B ",
"      6 ^ E / G .     c ` E / i .     H ~ E E ,   X > E E ~ H       a ( E ( c     . D / E ^ 6   . . ",
"; : @ w ( / ] K X < X B _ ~ _ k   < + L ] ( ~ 9 & = 9 ^ ( ] L % , X j [ ( ] V . 1   H ] ~ ] t + > : ",
".     7 ^ ^ / G .     l / E / f .   . K ( ^ E 1     < W Q / H   .   i / E ( c   X . D ( E ~ 7       ",
"H H D I 1.q.u.X.D G D _ g.2.a./ D H D o.w.5.6.L G F K 4.6.u.&.G G D W g.5.8.` D H D X.u.9.w.I D G H ",
"] ] `  .D.D.D.g.' [ / >.D.D.D.$./ [ / h.D.D.D.} ` _ } D.D.D.j./ ] / ;.D.D.D.<./ ] ( u.D.D.D...` ' ] ",
"E ( E ] D.G.D.9.E ( E @.D.D.N.+.~ / ~ q.D.D.C.] E ~ _ b.G.G.9.^ / E O.D.b.D.&.E / E 9.D.C.D.| E ! ! ",
"/ / ( } D.D.D.q.^ / ^ $.D.D.D.@.^ ( Q e.D.D.D.[ ~ ( ] N.D.N.x.Q / Q #.D.D.D.=.^ / ^ 2.D.D.D. .E ' ( ",
"w r 8 g  .]  .I 8 e 7 G  .] X.C 7 e 9 E ..] | i 9 q y ] { | E 9 r 6 C  .|  .D 5 t 8 I ..] } g 8 w w ",
".     7 ~ Q / G   + . c / ^ / d . o   H ( E E 2     1 E ^ ( L   o   d / E _ m   +   S / ~ Q 8   . . ",
"* ; . w ( ( ] H . : . b ] ^ ] c   : . L _ ~ Q 8 + $ 7 ^ / / L X : . g ' ^ / M   > . G _ ( / r . ; = ",
"% =   0 / ~ ] H   : . B ] E ( j . ;   L ( ( Q 7 X o 5 ^ ( _ P . ;   h _ ^ ] B . :   H [ ~ / w   = % "
};
