/* XPM */
static char *_507848e16da45e3efd08826d05bfbaevNDvGLzrC9POPXiZ[] = {
/* columns rows colors chars-per-pixel */
"50 50 167 2 ",
"   c #000031",
".  c #40394B",
"X  c #4B4756",
"o  c #5C5964",
"O  c #605A66",
"+  c #615E69",
"@  c #6E6B73",
"#  c #7B767E",
"$  c #C00000",
"%  c #CD796F",
"&  c #D79701",
"*  c #D79932",
"=  c #D79D3A",
"-  c #D99B36",
";  c #D8A147",
":  c #DDA149",
">  c #D9A250",
",  c #DBA65D",
"<  c #D1827B",
"1  c #DCAB70",
"2  c #827D84",
"3  c #6E9C9A",
"4  c #8C878C",
"5  c #8F8A90",
"6  c #989397",
"7  c #9B9798",
"8  c #9E9B9C",
"9  c #A19D9D",
"0  c #A49FA2",
"q  c #85A7A6",
"w  c #8FADAB",
"e  c #96B3AF",
"r  c #9BB7B8",
"t  c #A6A3A4",
"y  c #AFA9AB",
"u  c #B3ADAD",
"i  c #A7BBB9",
"p  c #ACBDBB",
"a  c #B5B2B2",
"s  c #BBB5B5",
"d  c #BDB9B6",
"f  c #BFBAB8",
"g  c #D6968D",
"h  c #D99C93",
"j  c #DFB687",
"k  c #DFB88D",
"l  c #DAA49C",
"z  c #DFBE95",
"x  c #E1B786",
"c  c #E0BA8D",
"v  c #E3BE95",
"b  c #D9A7A0",
"n  c #DCABA4",
"m  c #DDAFA9",
"M  c #C8B7AF",
"N  c #DEB3AD",
"B  c #CAB7B2",
"V  c #C0B8B6",
"C  c #CEBBB5",
"Z  c #C0B7BA",
"A  c #C3BDBC",
"S  c #CEBCB8",
"D  c #DFB6B0",
"F  c #D0BEB7",
"G  c #D0BFB8",
"H  c #E0B4AE",
"J  c #E0B7B1",
"K  c #E2BCB5",
"L  c #B1C1BE",
"P  c #E1C097",
"I  c #E3C29C",
"U  c #C6C1BE",
"Y  c #C9C1BF",
"T  c #D1C2BB",
"R  c #D8C5BF",
"E  c #E4C5A4",
"W  c #E6C8A6",
"Q  c #E6C7A8",
"!  c #E6C9AC",
"~  c #E8CBAE",
"^  c #E1C0B7",
"/  c #E9CDB4",
"(  c #E4C3BC",
")  c #E3C9B2",
"_  c #E7D1BA",
"`  c #E9D2BB",
"'  c #B4C3C1",
"]  c #B9C5C3",
"[  c #BBC8C5",
"{  c #C6C0C0",
"}  c #CBC5C2",
"|  c #C3CCC7",
" . c #CEC9C6",
".. c #C4CDC9",
"X. c #CFC9C9",
"o. c #D5C6C2",
"O. c #D5CAC4",
"+. c #DACBC5",
"@. c #D0C7CA",
"#. c #D3CDCB",
"$. c #DCCEC9",
"%. c #C7D0CB",
"&. c #CCD2CD",
"*. c #D6D1CD",
"=. c #DDD2CB",
"-. c #CDD1D0",
";. c #D5D7D4",
":. c #DCD5D2",
">. c #D6D8D4",
",. c #DDD9D5",
"<. c #DDDDD9",
"1. c #E4C7C1",
"2. c #E6C9C4",
"3. c #E7CFCB",
"4. c #E9CCC6",
"5. c #EAD5C5",
"6. c #EBD8C6",
"7. c #E1D4CE",
"8. c #EAD4CE",
"9. c #E1D8CE",
"0. c #ECDCCB",
"q. c #E2D6D1",
"w. c #EAD6D0",
"e. c #E4DAD5",
"r. c #ECDCD4",
"t. c #E5DDD9",
"y. c #E9DEDA",
"u. c #F2DEDA",
"i. c #EEE2D5",
"p. c #E5E2DD",
"a. c #ECE3DC",
"s. c #F0E0D3",
"d. c #F1E5DD",
"f. c #F1E8DE",
"g. c #E5E5E0",
"h. c #ECE5E1",
"j. c #EEE9E4",
"k. c #EFEEE9",
"l. c #F1E6E2",
"z. c #F3EBE5",
"x. c #F9EFE6",
"c. c #F4EFEB",
"v. c #F5EEE9",
"b. c #F4EEE9",
"n. c #F9EFEA",
"m. c #F4F0E7",
"M. c #F8F1E7",
"N. c #F3F1EA",
"B. c #F5F0EA",
"V. c #F7F0EA",
"C. c #F6F1EB",
"Z. c #F6F1E9",
"A. c #F5F0EC",
"S. c #F6F2ED",
"D. c #F7F4EE",
"F. c #F5F1EB",
"G. c #F9F1EA",
"H. c #FAF3ED",
"J. c #F9F2EC",
"K. c #FCF5EF",
"L. c #F9F2EC",
"P. c #F8EFF0",
"I. c #F6F4F1",
"U. c #FBF5F1",
"Y. c #F7F8F3",
"T. c #FEF9F4",
"R. c #FFFEF9",
/* pixels */
"b.b.z.b.z.b.z.f.b.b.z.z.z.b.z.J.T.z.I f.z.z.C.a.z.z.b.b.b.b.b.b.m.a.j.b.m.t.2 a G.b.b.z.b.z.N.z.z.N.",
"z.J.C.z.b.z.i.+.t.n.z.b.z.z.b.O.a } ` l.z.b.a.:.z.S.e.t.C.G.z.,.z.f ,.C.b.e.u *.b.z.l.a.a.N.a.j.a.c.",
"b.#.:.b.z.N.$.O.l.z.b.b.b.d.G.a O s S.G.b.h.C :.b.c.h.h.a.L l.j.z.z.b.d.l.C.U.k.z.b.9.$.r.N.a.z.z.b.",
"b.} :.C.d.f.z.b.z.b.y.A z.f.z.b.G.U.j.' p.z.a.m.b.d.r.U.' w b.l.z.z.l.b.l.z.j.j.z.b.b.S.b.l.b.l.k.b.",
"z.K.M.z.l.G.b.z.z.b.h.t.z.z.z.b.z.z.z.| p.N.z.b.S.N K S.h.z.C.q.a.C.N.z.a.b.z.D.8.g z.a.l.z.b.=.j.c.",
"b.z.l.z.h.A h.z.z.l.b.D.l.a.m.b.d.b.b.H.n.p.h.l.z.z.z.C.b.b.C.t.+.l.a.b.z.z.D.b.q.w.I.I 5.S.l.h.j.b.",
"z.v.l.n.a O z.z.j.a.b.z.z.b.m.s.j z.z.a.z.b.z.b.b.b.N.a.! m.t.e.N.r.( b.z.C.} . 9 D.S._ E I.h.S.b.b.",
"z.z.S.n.t.h.u :.S.N.b.l.r.z.z.z.d.h.j.=.h.z.l.s.a.b.z.a.: f.a.r.b.z.z.b.z.J.s 6 h.C.b.a.d.b.j.z.b.b.",
"b.l.4.z.n.J.:.h.l./ z.b.b.b.z.z.b.j.l.b.z.z.E = E D.G.b.0.l.b.C.C.b.z.b.z.b.a.z.J.a.h.z.z.b.e.h.z.b.",
"b.d.1.z.z.z.h.[ j./ a.k.=.z.z.C.k.C.w.y.S.y.7.i.z.h.:.C.b.b.b.9.+.=.z.b.b.m.U =.b.j.l.l.z.C.:.a.b.b.",
"z.z.I.z.h.U.<...b.N.M.l.e.z.b.H N b.c.n.C.q.S z.<.  5 z.p.z.e.T T e.z.z.z.z.b.b.z.z.z.e.h.m.a.a.b.b.",
"z.z.b.l.t.a.b.z.h.b.z.b.z.b.N.^ % J.*.d G.=.M q.U 9 l.&.i G.l.y.a.C.z.m.r.l.b.z.b.C.a.O.l.N.z.b.k.b.",
"b.z.a.C.f.=.l.q.a.z.m.C.z.z.z.J.z.U.A @ b.+.R t.J.T.:.,.k.C.z.m.b.b.b.z.l.l.z.d.z.a.a.b.b.z.z.z.b.b.",
"b.b.z.z.z.m.b.b.b.J.<.e.D.q.e.b.p.b.j.*.C.,.C b.b.z.z.z.a.z.z.z.b.=.=.H.n.b.z.z.z.t.f.z.z.z.j.m.:.b.",
"z.z.b.l.o.y.b.b.p.t.f X a.b.z.b.4 *.D.z.J.} { G.z.j.j.z.a.b.z.z.7.S q.} t.S.z.l.G.G.z.,.b.z.a.,.A j.",
"b.b.z.b.e.a.b.C.q. .b.#.p.c.b.b.t.a.k.b.z.G.l.a.b.b.j.b.S.b.z.N.l.a.b.#.j.b.b.t.#.b.j.z.b.b.N.p.G.b.",
"l.a.l.b.C.b.z.z.G.M.z.x.b.z.b.9.l.C.z.a.n.t.B y.c.z.j.e.z i.N.z.n.t.a.C.%.b.D.X.U G.z.z.N.l.d.C.z.b.",
"z.9.j.b.d.J a.C.d.l.l.a.z.z.b.9.a.C.k.$.y.G G e.z.z.S.5.1 l.D.b.z.z.b.j.p.z.i.f.Z.C.S.b.z.l.K l.z.b.",
"z.z.C.J.z.l.b.b.l.z.d.b.G.b.z.b.b.d.r.a.y.q.z.b.1.w.I.l.C.a.} t.b.b.z.b.b.D.6.~ S.f.E v a.b.N.b.z.b.",
"b.G.p.V z.b.b.l.q.=.j.l.#.l.b.G.z.v : / c.z.d.C.h.l.b.z.C.d o #.J.z.b.z.l.a.l.f.k.a./ r.b.N.j.=.h.N.",
">.p.e.f C.k.k.N.a.l.b.z.} b.p.u b.a.9.j.b.l.a.h.N.z.z.b.a.e.b.J.y.h.b.b.y.G p.h.h.D.U.I.h.l.b.a.z.c.",
"' p J.S.z.j.8.r.C.G.<.e.K.m.a.u G.p.r z.a.U.s s z.r.b.b.z.j.S.z.7.z.b.z.b.y.b.z.b.#.y.f., 0.N.l.z.b.",
"p.[ b.z.f.I.H m C.b.h.l.m.j.b.b.b.l.h.a.K x.y.j.z.b.b.z.J.u.n y.J.n.z.a.b.b.N.} *.q.t.d.! l.b.z.h.b.",
"b.b.b.z.j.b.b.H.b.b.z.j.a.l.z.k.b.z.m.f.z.b.b.G.s  .D.l.z.l.r.z.*.#.f.l.z.z.S.z.z.M.C.b.N.S.S.b.a.h.",
"b.z.a.g.h.b.l.*.f.b.h.y.h.c.l.4.b.z.a.z.z.z.d.b.p.a.l.b.a.z.N.z.t.e.h.z.b.z.0.l.z.g.p.h.N.D D c.d.l.",
"z.z.j.z.m.D.p.} b.b.a.z.l.b.a.1.b.z.b.b.z.x.z.h.G.C.l.z.z.z.l.l.n.J.l.l.b.l.6.l.z.h.h.z.Y.w.1.c.e.y.",
"b.k.j.G.h.>.T.p.s b.b.j.l.w.b.b.p.k.b.z.l.#.z.b.h.z.h.z.K.U.z.e.a.a.z.C.l.l.N.b.z.S.n.b.( w.Y.z.$.a.",
"z.j.j.l.=.X.*.o.#.n.b.K.z.a.b.j.t.G.>.] b.U l.m.z.z.a.l.#. .r.T :.( 5.z.f.l.b.z.c.s ,.J.1.a.z.z.z.n.",
"z.b.b.=.T a. .z.D.b.h.*.b.b.b.y.a.b.h.g.z.S.b.b.z.z.J.#.+ # a.p.e N.~ a.J.b.a.o.a.X.#.T.g.,.b.b.b.b.",
"z.z.f.a.C o.C.z.N d.z.U a.C.8.l z.b.d.b.$.t.b.l.b.z.b.j.z.p.z.z.a.z.j.r.~ b.b.G q.R.e.7 a.h.z.b.y.h.",
"z.d.a.l.e.z.m.C.a.l.D.C.z.d.z.b.j.U.( 8.:.=.C.j.j.b.j.l.z.#.j.z.G.z.h.i., 0.t.S +.q.e.} b.b.b.c.l.b.",
"z.h.b.z.S.y.=.9.f.z.i.z.b.z.l.j.b.t.j.b.z.j.b.c.a.h.b.b.z.z.j.z.y.h.b.h.z.z.q.S S O.z.T.J.b.a.y.z.b.",
"b.b.z.n.K.d.O.$.l.s.; 6.b.z.l.a.m.,.h.z.z.z.l.a.b.l.m.9.a.z.h.z.q.l.h.t.G.j.j.a.T h.0.j E z.a.i.b.b.",
"z.l.l.p.L %.G.b.b.C.6.i.S.z.b.z.z.D.b.N.S.S./ ` C.b.b.y.z.G.b.z.b.b.z.h.D.u A l.C :.i.k / z.h.9.q.c.",
"b.z.b...q i z.l.a.r.j.N.a.z.b.C.X.a h.4.< 8.S.b.a.y.b.h.a a.b.z.9.h.b.h.U.} 8 l.a.z.J.I.S.b.y.o.a.b.",
"z.l.z.T.K.H.a.+.Y T i.q.O.z.l.l.h.t t.4.l a.N.b.z.t.C.t.A z.z.z.b.z.l.b.a.p.e.z.z.h l l.h.z.b.z.z.b.",
"z.h.b.u #.J.h.h.9.a.N.a.l.Z.f.a.b.J.S.J.I.c.z.p.h.C.z.b.z.b.z.b.b.a.` z.t.t.U.C.d.m ( b.h.z.h.z.z.b.",
"a.b.b.U e.C.J.9 9 D.j.z.p.l.l.z.z.z.p p.z.z.J.;.p.b.z.h.3 h.#.0 D.l.b.l.G.a.a.e.a.Y.I.l.b.a.b.b.b.c.",
"x l.z.U.,.8 J.U   e.f.z.T $.l.b.z.z.| a.n.d.z.S.t.j.h.l.i <.h.#.m.C.z.b.a.B q.#.:.b.l.z.J.b.z.b.z.b.",
"d.z.b.h.,.t.b.b. .t.z.b.y.9.b.d.l.z.n.l.b.l.:.4 9 z.l.z.b.j.z.T.H m S.b.t.=.l.K.z.b.z.n.A } H...&.J.",
"b.z.b.b.n.S.j.h.D.n.b.b.J.c.d.x z.c.k.z.b.b.b.*.z.m.b.z.b.G.t.N.( $ 8.S.b.b.C.] >.z.g.U.Z @ z.p.g.C.",
"f.d.z.d.j.z.C.h.a.d.C.t.u h.z.i.z.a.a.b.c.y.#.J.b.l.l.b.y.t.b.z.b.K r.S.z.C.b.*.z.G.h.z.l.y.b.e.r.S.",
"z.k.b.e.h.f.d.b.z.l.m.h.:.z.J.c.z.o.3.z.c.l.} a.l.d.z.C.e.y.b.z.z.a.z.b.z.e.e.K.e.} b.z.f t.S.a.e.C.",
"l.l.G.m.E * 6.P.z.k.y.J.U.z.e.z.z.b.j.b.r.d.U.z.z.z.b.d.C.b.z.z.j.a.z.b.C.w.M t.h.t.b.b.c.b.z.b.f.z.",
"b.C.] >.v ` b.a.b.b.l.*.t.p.y h.b.z.b.b.) ` N.z.b.h.N.E k b.z.z.b.l.b.z.l.h.o.q.S.n.z.h.b.z.z.z.l.b.",
"h.m.| <.U.l.z.z.z.C.{ # Y J.c.z.z.G.b.l.l.z.l.b.l.h.N.r.& 6.U.z.E - ! j.+.c.+.$.b.z.z.h.J.t.e.b.b.b.",
"p.h.J.C.l.H a.b.z.d.7.z.D.<...n.z.a.o.$.I.u.l a.S.C.z.b.r.f.p.j.i.0.i.b.z.z.$.y.S.z.l.h...z.j.b.z.b.",
"z.l.b.b.b.b.b.9.j.2.h b.G.<.>.b.b.l.a.a.h.;.j.C.t.t.b.z.S.a.t a.S.S.C.a.b.b.c.t.a.b.h.j.g.z.b.b.P s.",
"z.z.z.k.j.z.N.a.z.z.a.z.z.b.G.b.z.l.l.K.>.L G.b. .:.J.l.b.z.z.b.l.p.b.z.z.l.G.Y >.C.b.b.G.b.z.m.6.a.",
"b.N.b.a.h.z.z.b.z.z.c.b.z.f.a.:.C.z.z.z.z.C.b.z.b.G.b.b.z.x.b.b.a.*.G.b.b.b.z.C.C.l.z.z.l.b.b.j.C.C."
};
