/* XPM */
static char *e4e0cfb3cbe14dec9daec30fe236fb46o4Gg65lR0buSjpqa[] = {
/* columns rows colors chars-per-pixel */
"50 50 139 2 ",
"   c #658D1F",
".  c #709F1F",
"X  c #5F8120",
"o  c #628520",
"O  c #658D22",
"+  c #688E24",
"@  c #669223",
"#  c #6A9523",
"$  c #6C9C25",
"%  c #689328",
"&  c #6E9E29",
"*  c #719726",
"=  c #719D24",
"-  c #789E25",
";  c #729E28",
":  c #6EA325",
">  c #6FA827",
",  c #6FA329",
"<  c #72A526",
"1  c #79A625",
"2  c #74A926",
"3  c #7BAC26",
"4  c #73A629",
"5  c #78A629",
"6  c #7AA728",
"7  c #79A72A",
"8  c #79A529",
"9  c #7AA529",
"0  c #71A828",
"q  c #71A829",
"w  c #73AA28",
"e  c #74A829",
"r  c #75A829",
"t  c #77A828",
"y  c #76A928",
"u  c #75AA28",
"i  c #77AA29",
"p  c #76AB29",
"a  c #74A82A",
"s  c #75A92A",
"d  c #77AA2B",
"f  c #75AD28",
"g  c #75AC2A",
"h  c #77AC2A",
"j  c #75A929",
"k  c #79A828",
"l  c #78A929",
"z  c #7BA829",
"x  c #78AB28",
"c  c #79AB28",
"v  c #78A92B",
"b  c #79AA2A",
"n  c #78AB2A",
"m  c #7BAA2A",
"M  c #7AAB2B",
"N  c #7CA928",
"B  c #7FA929",
"V  c #7CAB29",
"C  c #7CAB2B",
"Z  c #79AC29",
"A  c #78AD29",
"S  c #7BAD28",
"D  c #7AAC29",
"F  c #79AE28",
"G  c #7AAE28",
"H  c #7AAF29",
"J  c #7BAF29",
"K  c #79AC2B",
"L  c #7AAD2A",
"P  c #7BAD2A",
"I  c #7BAE2B",
"U  c #7AAF2B",
"Y  c #7DAC28",
"T  c #7EAD29",
"R  c #7DAF28",
"E  c #7CAE29",
"W  c #7FAC2B",
"Q  c #78AB2C",
"!  c #7AAD2C",
"~  c #79AE2C",
"^  c #7BAC29",
"/  c #76B026",
"(  c #7AB027",
")  c #7CB027",
"_  c #7DB027",
"`  c #7EB327",
"'  c #7FB426",
"]  c #7CB026",
"[  c #75B12D",
"{  c #7BB128",
"}  c #7BB02A",
"|  c #7CB028",
" . c #7DB128",
".. c #7EB128",
"X. c #7DB329",
"o. c #7CB02A",
"O. c #7CB12B",
"+. c #7DB12B",
"@. c #7FB12A",
"#. c #7DB32A",
"$. c #7FB32A",
"%. c #7BB02C",
"&. c #7DB12A",
"*. c #81AB26",
"=. c #82AD28",
"-. c #80AE28",
";. c #84AD2B",
":. c #81AE2A",
">. c #83B226",
",. c #82B227",
"<. c #80B029",
"1. c #82B029",
"2. c #83B329",
"3. c #80B32A",
"4. c #82B22A",
"5. c #82B22B",
"6. c #83B32B",
"7. c #87B32A",
"8. c #81B429",
"9. c #81B42B",
"0. c #82B52A",
"q. c #84B528",
"w. c #84B42A",
"e. c #81B02C",
"r. c #87B32C",
"t. c #84B42C",
"y. c #87B72D",
"u. c #83B32A",
"i. c #8AB729",
"p. c #89B52A",
"a. c #8BB42A",
"s. c #89B52B",
"d. c #87B829",
"f. c #84B92B",
"g. c #89BA2B",
"h. c #8ABA2A",
"j. c #8EBB2A",
"k. c #8BB92C",
"l. c #90BA2E",
/* pixels */
"< < 2.2 $ 3 e  .f  .`  .e +. .T < < < 2 < > t h G T < < < 4 < < 2 ( G h  .G t 2.3.t t 1 c 4 4 e T t ",
"e e } < t 2 < t G h T G c U e < > < , > < 4 ( 3 T a.1 , 4 : q < < t G 4 c 3 3 3.3 2.h.5 < > < < < < ",
"4 < 3 3 4 $ > > 2 2 G t e 2 , > e R < 3 < 4 q 2 G c 4 3.4 -.2 > 4 > 4 > : t G t U G 2.R : 4 < < > q ",
"2 2 } G T 2 < 2 < q e 4 e 4 2 < 2 e T 6.> < 2 < : : T -.T 1 $ 4 , 2 < T N 4 > > R  .R < 2 < < > < < ",
"< > t f T N 4 < < $ # # , t G 4 U T  .5 4 > < , , < t [ 3 t d.8.< < : C t , < 2 e c < < 4 < 2 < < c ",
"4 c $ 4 c = 4 q < : $ $ $ h 3 e f 6.1.2 1 4 2 4 2 2 f G h t - . < N c < G 2 < < 4 < 2 < , e N 3 1 R ",
"R N * $ 4 < < < q 2 t < : < 3 ( T T f N $ $ $ # $ @ < G G e : : 2 7.T G < < $ # # # O $ q 3 G 3  .3 ",
"2 4 : # @ # % # < ( } e 4 : h } 2.e G 9 < = # $ # : 2 c G 2.g.< 4 r. .3 3 q : # @ # # < 2 4 < e h e ",
"c *.4 $ $ & : < q e 3.3.2.e 4 < , < < < 4 < < 4 2 4 5 2.e 5 a.2 4 1 < : < < e < < : N 2 2 T -.N : 4 ",
"N 4 q a 4 G t 3 3  .G c 1 < 4 4 < : 1 < e 4 c 3 4 4 4 =.h.4 $ 4 4 : > # g.q 4 e r.< 3.5 e } 6.2 2 3 ",
"t w  .G 4 G c 2  .3 3.1 $ < < q 2 4 G N 3 T t 3.3 > 4 : 3 < > , = R < - s.4 < 4 R N c h 3  .5 < e e ",
"t } 2.T e G I $ C  .5 T $ < 4 , , 2 3 / e t 3 3.-.N < e $ < 4 < c I k.R U q e 2 2 h G e 2 }  .: 4 < ",
"t 3.+. .4 :.3.2 $ 5 1 9 1.2 < N , < e 4 , e 3 f 4 & $ $ = 4 1 s.t.3 R w.G , $ $ # $ # # # * $ 4 4 < ",
"< R :.-.$ 3.;., 2 $ 3.w.3.T G g.< } 7 < <  .; $ < 4 $ # $ & 4 ,.3.+.R G t # @ @ # @ + + # # # < e < ",
"2 $ = = < < $ e q 2 < 3.R 3 c G G k.t T #  .$ $  .R + + # O = k. .f h t < < 4 = $ # < c c 4 G  .} R ",
"G 4 4 4 3 5 $ $ $ $ 4 8.=.N G G 3 s : ,.6.4 c c t.9 # # # @ $ 4 t < < < 4 > > # @ * -.N } / 3 G g.a.",
"G f G G -.*.+ O # @ # < c 4 : < c q 4 r.k. .h G T +.1.- O $ 2 < 4 > 2 < h G = O # # + 9 g.e 4 e 2 6.",
"c 3.1 N  .3.1 O # O = c $ < 1 < < 4 < I ,.(  .w 3 } 4 O $ & * $ 4 C T G -.y.3 # + + O = ; # $  .$ 4 ",
"< 3.* # 1.z 9 *   # 6.3.1 T  .r.q < < < 4 e a < 2 < : 2 : $ # $ c 3. .h 2.a.1 $   X o % # 4 2 c 4 4 ",
"c 2 < # + 1 < :.3 $  .G e G $.3 t , 2 < 4 : 1 c 4 , f 3 t < 4 t  .T q.R G e 4 : @ # $ < I ` T 4 t 3 ",
"N 4 4 < $ a 6.G  .e G +.4 3 T c 2 : 4 3 q < 5 3.G 3 T 5 3.2 4 , f.1 4 } < $ > < R 2 < < 3 ;.c R G 5 ",
"4 4 < 1 T G G G t h t c < 4 2 > 4 t G G 1 2 7. .G < 3.< T G < < 6.* : $ < ; 1 < 1.1.4 < 4 < e < 4 , ",
"e 4 4 4 3 }  .G 4 1 $ # # # # & > 1 2 < : e c e 4 < < 2 : > < < 4 e T -.< < k.r.5 U G 4 < , 2 e 4 U ",
" .4 < > < e e e > < $ $ # $ & < < 5 N h T t e 3 4 4 $ # # $ 4 4 s G T s.c : e N  .G 4 < < * R c 3. .",
"e 3 t > < < > 4 < > 2 & 2 2 4 q < a N W R 1 N c > < ; $ $ 4 , q e e R -.2 * = 2 c } 3 < > t c w. .3 ",
"c G 2 $ $ # # # < 4 < 5 -.a w 2 4 4 < c < < 2 2 4 : q G h < t < t -.: > < T t.< T G G 4 4 < C T U e ",
"s < 2 : $ $ 4 : > 4 4 < N T T t < 4 < q < < @ O @ < 3 G %.< 2 > 4 c 4 q , 2 & 3 G 3.T 4 : 2 3.3 c < ",
"e , > t G U ( e e 4 4 : 4 3 G q , < , < 4 : $ $ @ 1 a. .3 c ` s > 4 U t < > < 1 & c 2 4 2 4 4 2 C 4 ",
"2 c U +.2 f 3.-.h G 2 U < 1 1.2 < 4 < 4 t t < e a 1 T  .N s.G c  .e 3 T 2 $ O o o o , r.3 G f 4 < < ",
"4 N r.1 t t.s.G G a.6.G , c G 4 , 4 N 3.-.3 h e G +.q $ g.k.< c T T q.g.` $ % O # $ < R 3 t e 2 < : ",
"< e T 4 4 2 4 < < 3 2 < < 2 4 4 1 3.2 1 3.T :.w.:.T q 2 4 4 : 4 5 3.1.1.N > 4 2 4 2 2 4 > T 4 4 < T ",
"T z $ < < < > 2 4 < < 2 4 f 3 3 U N -.c N z : $ $ $ $ $ = 4 < < < ;.2 $ 2 t < c T s 3 c G t q > T 3.",
"T 2 1.3.: 4 < < 4 q , 4 4 e < e e t < 2 : # O   @ @ + @ & G T h e 4 4 < R c < 3.T 3 -.2 =.2 < 4 G G ",
"c 4 $ * > 2 < e e < W 2 2 G :.N < 4 G c 4 < , & $ = , < e G T 3.1.3 : 3 s < 1 N c 4 4 4 4 4 : > c G ",
"U  .G < q 4 , t w.< ` c 3  .T 2 2 G < < 4 2 3 e t G G t  .G } 4 - < 4 1 c e U < 2 4 > < @ @ # = < h ",
"e -.k.1 , 4 2 4 3 3 2 t q T z < 4 2 < > 4 G  . .2 G 3 : T } 3 R $ : < R G T c 3 c 4 < 4 : = 4 > 3 T ",
"a.< $ < < : $ < 4 e 2 e > < < < < > < 4 1 +.T -.t G 3.4 $ N 8 9 ` , q 2 2 2 < 2 < < 4 4 f 3 < , 2 R ",
"c 4 $ O O O @ : 4 , < 2 G 4 G  .f t < < < T 3 R $ ` =.$ e $ T t.6.R 4 k.4 T t : T T N ` f ,.c 2 4 4 ",
"4 > $ $ $ * # : < 1 1.6.f h U %.w.a.4 > e = : < 4 < & < q < < +.G 3 G I 3 k.t < G e q 2 G T ;.4 < q ",
"t 4 < q 2 $ $ # # :  .c ,.3 h t s.>.4 4 3 c f t T 3.t > 2 < < T 3.e t h 3 < > > 4 2 < e 1 4 : < < 2 ",
"t 4 e 2 3 3.t 4 < < $ N t.< < 3 $  .4 2. .3 e G  .3.< & # @ @ $ < ; $ : 2 < 4 > 4 4 & 3.$ < e 3 $ 4 ",
"< G -.} T w.2 < : & 4 e t < $  .< : t d.3 3.3 R T 8.N < 2 & 1 T , < 3 5 > < 2 , < 1.N e t h 6.*.< 4 ",
"3 } G ( 3.k.1 @ o o : q : > 4 G < 4 2 4 : T 3 4 a.3 3.; : <  .3.< T T t.4 < 2 < 4 s.k.G G U 3  .1.2 ",
" .3.k.7 -.-.< < , $ ; < *. .T 4 < t c < , < < < 4 3 $ ` 5 $ T  .e G 6. .e 4 < < 2 e T %.3 4 G h 2 : ",
" .4 c 1.< $ 2 > < < $ * 1 3.3 3 N N  .4 4 4 < , & 4 1.I 2.4 h  .t G  . .q > < > < < > # O $ q , < 2 ",
"l.1 $ e * $ $ $ $ < @ O # *.e 1 < $ N 2 < < 2 , < < G 3.( 3 e  .< s G s > , 2 4 < > < , $ $ < 4 < < ",
"N $ q < $ @ + # # $ $ # O # * @ O # $ , < 2 4 e ;.3.-.s t h 4 > < < < < : < 2 $ $ # $ 2 : % @ < 2 4 ",
"4 < , 2 4 < < : $ : 4 $ $ # % $ < 4 : $ 2 , G T e  .:.U 2 , 2 4 > , 4 r.- < < : # $ $ > = & 4 3 3.= ",
"2 < > 4 > < < 3 $ $ , R 4 t ` > < < 4 2 4 2 3 e : 4 e c t < < 4 e t.=.1.T 1 < < < , < T 3.1.3.W e.5 ",
"1.< 3 R < R y.k.6.C t.w.3 2.w.} e e e e 4 e 3 t  .U 4 2 4 < e t T s.k. .G T 4 6.l.< 4  .3 T c G R ,."
};
