/* XPM */
static char *_fb33934c98d4345fabb8cf8a5f1b289ra1v737P6m7jATc0[] = {
/* columns rows colors chars-per-pixel */
"50 50 152 2 ",
"   c #000033",
".  c #00013C",
"X  c #010045",
"o  c #01004B",
"O  c #000053",
"+  c #000159",
"@  c #000C5B",
"#  c #01145B",
"$  c #011B5E",
"%  c #05205E",
"&  c #0B215F",
"*  c #15265F",
"=  c #18275E",
"-  c #16295F",
";  c #18295F",
":  c #051E60",
">  c #0E2261",
",  c #162762",
"<  c #182761",
"1  c #162861",
"2  c #182961",
"3  c #222E63",
"4  c #253164",
"5  c #2B3565",
"6  c #2D3966",
"7  c #2A3469",
"8  c #2F3B68",
"9  c #303866",
"0  c #333B6A",
"q  c #3C436C",
"w  c #3D4470",
"e  c #41496F",
"r  c #484E6E",
"t  c #404771",
"y  c #454B71",
"u  c #494E73",
"i  c #4C5375",
"p  c #4F5579",
"a  c #555A79",
"s  c #595E7D",
"d  c #5D617E",
"f  c #60667E",
"g  c #5F6380",
"h  c #616682",
"j  c #656A83",
"k  c #6A6D86",
"l  c #6C6F88",
"z  c #6D728A",
"x  c #72758D",
"c  c #74788F",
"v  c #767B90",
"b  c #7B7D92",
"n  c #7D8195",
"m  c #818496",
"M  c #84869A",
"N  c #86899C",
"B  c #8A8D9D",
"V  c #888DA0",
"C  c #8E92A2",
"Z  c #9395A5",
"A  c #9897A7",
"S  c #9599A7",
"D  c #969AA9",
"F  c #9B9DAA",
"G  c #9DA0AD",
"H  c #A2A4AF",
"J  c #A3A5B1",
"K  c #A7A9B5",
"L  c #A9ABB6",
"P  c #ABAEB9",
"I  c #AEB1BB",
"U  c #B1B4BE",
"Y  c #B5B8BF",
"T  c #B4B7C1",
"R  c #B7BAC2",
"E  c #BABDC4",
"W  c #BCBFC8",
"Q  c #BDC0C7",
"!  c #BEC2C9",
"~  c #C3C5CC",
"^  c #C8C7CF",
"/  c #C5C8CE",
"(  c #C9C9CF",
")  c #C6C9D1",
"_  c #CCCDD2",
"`  c #D0CFD5",
"'  c #CFD0D5",
"]  c #D1D1D6",
"[  c #D4D5DA",
"{  c #D8D7DD",
"}  c #D7D8DD",
"|  c #D9DADE",
" . c #DCDDE1",
".. c #DEE2E5",
"X. c #DDE1E4",
"o. c #DFE0E4",
"O. c #E0E1E5",
"+. c #E0E4E5",
"@. c #E1E2E6",
"#. c #E3E4E8",
"$. c #E4E5E9",
"%. c #E5E6E8",
"&. c #E5E6EA",
"*. c #E6E7EB",
"=. c #E5E6EA",
"-. c #E8E7EC",
";. c #E8E7EC",
":. c #E6EAE9",
">. c #E4E8EB",
",. c #E7EAEC",
"<. c #E9EBEA",
"1. c #EAECEB",
"2. c #EAEBED",
"3. c #E9EAEE",
"4. c #EBECEE",
"5. c #ECEEED",
"6. c #EAEBED",
"7. c #EEEFF1",
"8. c #EDEEF0",
"9. c #EDF1F0",
"0. c #EFF0F2",
"q. c #EEF1F2",
"w. c #F0F1F3",
"e. c #F2F3F5",
"r. c #F3F4F6",
"t. c #F4F5F7",
"y. c #F3F4F5",
"u. c #F7F9F6",
"i. c #F5F6F8",
"p. c #F6F7F9",
"a. c #F6F6F9",
"s. c #F7F9F8",
"d. c #F5F9FA",
"f. c #F5F8FA",
"g. c #F8F9FB",
"h. c gray98",
"j. c #FBFBFB",
"k. c #F9FAFC",
"l. c #FAFBFD",
"z. c #FBFCFE",
"x. c gray99",
"c. c #FDFDFD",
"v. c #FCFCFE",
"b. c #FCFDFF",
"n. c #FDFDFF",
"m. c #FDFFFE",
"M. c #FEFEFE",
"N. c #FEFEFF",
"B. c #FFFEFF",
"V. c #FEFFFF",
"C. c white",
"Z. c #FDFDFD",
/* pixels */
"2 ; 2 2 2 2 2 2 2 , 2 2 , 2 2 2 2 2 2 2 2 2 , 2 2 2 2 2 2 2 - 2 2 2 2 2 < 2 2 2 2 2 2 2 2 2 2 2 1 2 ",
"2 2 2 * - 2 2 , 2 2 2 , 2 , 2 2 < 2 2 2 2 ; 2 - 2 2 2 2 2 2 - 2 , , 2 2 2 2 2 2 2 2 2 < 2 2 1 2 2 2 ",
"2 2 2 2 2 2 2 2 * 2 3 3 2 2 2 2 5 5 2 < 2 2 2 2 2 , 2 ; - 2 2 2 6 4 = 2 2 2 4 3 , 2 2 < 2 2 2 2 1 2 ",
"2 2 2 2 2 1 2 , 4 3 + O + 2 @ 2 X X $ 4 , 2 , 2 2 2 2 2 2 - 4 # X o 3 # 3 @ + O 3 3 2 2 2 , 2 2 2 2 ",
"2 2 2 2 2 2 , 4 # + j Z H n P P ] F 0 @ 4 , - ; 2 2 , 2 , 7 + y J [ P P b K Z h + $ 3 , 2 2 2 2 2 - ",
"- 2 2 2 2 , 4 O i L } %.! D G o.q.l.e.d O 4 , 2 2 2 2 , 4 o k k.f.5.o.F F ~ ;.[ P i O 5 , 2 2 2 2 2 ",
"2 2 - 2 2 4 O c %.l.z.V.o.~ v ] ! I V.P 6 4 2 2 2 2 < 2 5 8 R V.U ~ ( b / @.V.j.l.#.z O 4 , 2 2 2 2 ",
"2 2 ; , 4 O n ' V.V.V.V.e.~ x P e. .l.%.h + 3 2 2 2 2 3 O l 3.g.| e.K v ~ g.V.V.V.l._ b O 4 , 2 2 1 ",
"2 2 2 3 O z $.>.i.~ ( | j. .P F }  .] V.H o 7 2 2 2 2 5 X P V.] o.[ F U | x.| / ~ a.$.%.j + 4 2 2 2 ",
"< 2 2 4 + D | ~ Q U Y P ` K c ` R ~ L 5.3.X 4 , 2 2 2 3 O 7.3.L ~ R ` z U _ P T U E / | A + 3 2 2 2 ",
"2 2 2 @ a ~ _ ! W R R R P H Z W / 6.6.V.S o 7 2 2 2 2 5 o G j.4.>./ W Z H P R R R W ~ ( ~ y # 2 1 1 ",
"2 2 4 O n  .Q _ W R I F Z i 0 i M _ 9. .s > 2 2 2 1 * 2 > h o.5./ n e 0 u Z Z U Y ~ ( ~  .b O 4 2 2 ",
"2 , 7 X L ] ( ~ ~ L q 6 4 % 8   S ( |  .O 5 2 2 2 2 2 2 5 O *.] _ C . 9 % 4 5 q P / ~ ) _ J X 4 , 2 ",
"; , 4 O Q _ _ _ W q + 2 3 3 4 G J f.5.Z O 7 , 2 2 2 , 2 3 O D q.a.H F < 3 5 2 O q W ` ( ] R O 5 , 2 ",
"2 * 3 O _ } ) | c o 7 > o 3 O ^  . .w X 4 , 2 2 2 2 2 2 , 4 X y } @.! o 2 o $ 6 o m | / | / O 4 , 2 ",
"2 , 5 X P [ [ [ N O 4 q N 0 X y F i O 0 , 2 2 2 , 2 2 2 2 , 0 O i F 0 X u B q 4 O C { [ } J X 5 , 2 ",
"2 , 4 O C | [ _ h + O v | | s + X # 7 > 2 2 2 2 2 2 - 2 2 , , 3 @ X + k  . .z O + k ' ' | N o 5 2 2 ",
"2 - 3 $ e [ ] _ q y a X m @. .4 5 3 , 2 2 2 2 2 , 2 2 2 2 2 ; , 3 3 q  .o.z X s q p ' [ _ 0 > 2 1 2 ",
"2 2 , 4 O D o.] W h 0 : N | w.a O 3 2 , 2 2 2 , 2 2 2 2 2 2 ; 2 4 O k e.[ M > q j Q ' o.C O 4 , 2 2 ",
"2 - 2 3 $ q ! [ / W P W ` ] 1.( X 6 ; 2 2 - 2 2 1 2 2 - 2 2 2 1 7 X ] >.[ ] Q I ! ( [ W 0 $ 2 2 2 2 ",
"* 2 - < 4 O j } _ W ~ E [ } 4.R X 6 , 2 2 < 2 1 2 2 2 2 2 2 - 2 5 X W 3.} ' R / Q _ [ g + 4 , 2 1 2 ",
"2 2 2 2 < 4 + x ~ ~ ^ ~ ` O.7.e $ 2 ; 2 - 2 2 2 2 2 2 2 * 2 2 , 4 @ a q.o.] ^ ) ~ ~ j O 3 * < 2 2 2 ",
"2 2 , 2 2 , 3 O q G ( @.O.i./ z 9 = 2 < 2 2 2 2 2 * 2 2 2 2 2 2 * 0 z ) t.+.@.~ S 6 + 3 * 2 2 2 2 2 ",
"- 2 2 2 2 2 < 4 # + i M / K 0 $ 2 2 2 2 < 2 2 2 2 2 2 , 2 2 2 2 2 2 # 0 K ~ n y + $ 3 * 2 2 2 2 2 1 ",
"2 2 2 2 2 2 2 , 3 3 # O O o > 2 * 2 2 2 2 2 2 2 2 2 2 2 2 2 2 2 2 * 2 % o O O : 4 2 , 2 2 2 2 2 2 1 ",
"2 2 2 2 - - 2 , ; 3 $ O O o , 2 2 2 2 2 2 2 2 2 2 2 2 2 2 1 2 - 2 < 3 * o O O $ 3 3 , 2 2 2 2 2 2 2 ",
"2 , 2 - 2 2 , 4 # + i M ) K 0 $ 2 2 - 2 - 2 - 2 2 - 2 2 2 2 2 - < 2 $ 6 J ~ m u + # 4 , 2 1 2 2 2 2 ",
"2 2 2 2 2 , 3 + q F ) o...f.^ z 8 , , 2 2 2 2 < 2 2 2 - 2 2 2 , * 6 l ~ g.$.O.^ D q O 2 * 2 1 2 1 2 ",
", 2 2 2 * 4 + z ^ ! ^ ~ ` O.e.r # 2 2 2 2 2 2 2 1 2 2 1 2 2 2 - 3 # y 9.@._ ~ ) ! ~ z O 7 * 2 , 1 2 ",
"2 2 2 , 3 O h } _ W / W [ } 3.E X 5 2 2 * 2 2 2 2 2 2 2 2 2 2 , 6 X U 6.} ] W ~ ! ) } h O 4 1 2 2 2 ",
"2 2 , 3 $ q W } ^ Q I W _ [ 8.) X 7 2 , 2 2 - 2 2 2 2 2 2 2 2 2 6 X _ 3.] _ ! I ! ~ } ~ q $ 2 2 2 2 ",
"2 2 , 4 O Z @._ W h 0 $ N { 9.d + 4 2 2 2 - 2 2 2 1 1 2 2 2 2 2 3 O s 9. .V 2 0 h W ]  .S O 4 1 2 - ",
"2 2 2 $ q ] ] _ y y s X b @. .6 4 4 - ; ; 2 2 2 2 2 2 2 2 2 2 , 3 4 4  .@.b X s u w _ [ ] q : 2 2 2 ",
"1 2 4 O C | ] _ g + O v | | g O X @ 4 * 2 - - 2 2 2 2 , 2 < , 3 $ X + f | | v O + d _ _  .C o 7 , 2 ",
"2 2 5 X L [ [ } V O 4 q N q X w F p O 8 , 2 2 2 2 2 2 1 2 , 0 O e D q X q B t 4 O B [ [ [ P X 6 1 2 ",
"2 2 4 O ( { ^ | n O 7 % o 3 O ~ @. .r o 4 2 - 2 2 2 2 2 2 4 X 0 } @.) O 3 o : 8 O b | / } _ + 3 1 2 ",
"2 , 5 o W _ ) ` W q + 2 4 2 4 F G u.q.D O 4 2 2 2 2 2 2 4 o Z 6.g.J F 4 3 4 2 + 0 E ' ) ' ! o 4 1 2 ",
"2 , 6 X P _ ) ~ ^ P q 5 4 > 7   C _ [ +.+ 5 2 2 2 1 2 2 5 O  .| ( D   8 $ 4 4 q L ) ~ _ _ P X 7 1 2 ",
"2 2 3 + b  .W _ Q R U F Z i 0 i M ^ 9.o.d & 2 2 2 2 2 2 * s | 5._ m y 0 y Z S I R W _ Q  .M O 4 1 2 ",
"2 2 2 # i ~ ) / W R R R P H Z ! ~ 3.3.z.H o 4 2 2 2 2 4 O Z V.3.4./ W Z H L R E R E ! _ ~ a + 3 2 1 ",
"2 2 2 3 + D  ./ W U U I ' P z ' R ~ K 3.5.O 4 , 2 2 , 7 X <.5.K / R ] v L _ P T U E /  .F + 3 2 2 2 ",
"2 2 2 3 O j #.*.t.~ ^ | k.o.I F } @.[ V.J X 5 * 2 2 , 7 o J V.] o.[ F L | l. .^ ~ y.*.%.z O 3 2 2 2 ",
"2 - 2 , 4 O n _ x.V.V.V.u.! x K e.} j.;.l O 4 2 2 - 2 4 + h >.x. .r.P c ~ t.V.j.V.V.` M O 4 , 2 2 - ",
"2 2 2 < < 4 O z %.x.k.V.@.^ b _ ~ U V.T 4 5 1 2 2 < , , 7 0 I V.U ! ` v ~ O.V.l.j.%.b o 4 < = 2 2 2 ",
"2 2 , 2 1 1 4 O u P ] %.! F F o.q.l.i.j O 4 * 2 2 2 2 , 3 O d u.l.7.@.F F ! ;.} P a O 4 , 2 , 2 2 1 ",
"2 2 2 2 , 2 2 3 # O h Z K n L L ] F 0 + 4 2 1 2 , 2 2 2 , 4 + q F [ U P m J Z j + # 4 , 2 2 = 2 2 2 ",
"2 2 1 2 2 2 2 , 3 4 O + + 2 @ 2 X X $ 4 2 , 2 2 2 2 < 2 2 , 3 $ X X 2 # 3 # + + 3 3 , 2 2 2 2 2 1 2 ",
"2 2 2 2 2 2 , 2 2 2 3 4 3 2 2 2 5 6 2 , 2 2 2 2 2 2 - 2 2 2 2 2 7 5 * ; 2 2 4 3 2 , 2 2 2 2 2 2 2 2 ",
"2 2 2 1 2 1 2 2 2 2 2 - 2 2 1 2 * 2 - 2 2 2 2 2 1 2 2 1 2 2 2 2 2 2 2 2 2 2 2 2 2 2 2 2 2 2 2 2 - 2 ",
"2 2 2 2 2 2 2 2 2 1 2 1 2 2 2 2 - 2 2 2 2 2 2 1 2 2 2 2 1 2 2 2 2 2 2 2 2 2 2 2 2 2 2 2 2 2 2 1 2 2 "
};
