/* XPM */
static char *_897cb3e5494455a86b91dff3e52df2a22wiohWooDRZTfX9[] = {
/* columns rows colors chars-per-pixel */
"50 50 138 2 ",
"   c #1D0000",
".  c #1D0807",
"X  c #1D0709",
"o  c #1D0B0B",
"O  c #1D1112",
"+  c #1E1818",
"@  c #200D0F",
"#  c #1E2223",
"$  c #202221",
"%  c #213536",
"&  c #243E3F",
"*  c #234244",
"=  c #25494B",
"-  c #26504F",
";  c #264E50",
":  c #275455",
">  c #285052",
",  c #285558",
"<  c #275A5B",
"1  c #295A5B",
"2  c #295E61",
"3  c #2A6365",
"4  c #2B6669",
"5  c #2C6B6D",
"6  c #2D6E71",
"7  c #2E7374",
"8  c #2E7877",
"9  c #2F7578",
"0  c #2E7A7C",
"q  c #317476",
"w  c #30777A",
"e  c #317B7D",
"r  c #327E81",
"t  c #328285",
"y  c #338689",
"u  c #358B8D",
"i  c #388C8E",
"p  c #368E91",
"a  c #388D90",
"s  c #369294",
"d  c #389496",
"f  c #379599",
"g  c #389698",
"h  c #399499",
"j  c #3A979C",
"k  c #389699",
"l  c #36989B",
"z  c #379B9E",
"x  c #39989A",
"c  c #3A999B",
"v  c #389A9B",
"b  c #39989C",
"n  c #3B989D",
"m  c #3A999D",
"M  c #399B9C",
"N  c #389A9D",
"B  c #38999F",
"V  c #3A999F",
"C  c #399B9E",
"Z  c #3B9A9E",
"A  c #3C9B9D",
"S  c #3C9B9F",
"D  c #399D9D",
"F  c #3A9C9D",
"G  c #3B9F9D",
"H  c #389C9E",
"J  c #399D9F",
"K  c #3B9D9E",
"L  c #3A9C9F",
"P  c #389F9E",
"I  c #3A9E9E",
"U  c #3B9F9F",
"Y  c #3D9C9E",
"T  c #3A9C9E",
"R  c #3899A0",
"E  c #399AA0",
"W  c #3A9BA1",
"Q  c #3C9BA1",
"!  c #399CA1",
"~  c #3B9DA0",
"^  c #389EA0",
"/  c #399FA1",
"(  c #3A9EA0",
")  c #3B9FA1",
"_  c #3B9CA2",
"`  c #3A9DA2",
"'  c #389EA2",
"]  c #399FA3",
"[  c #3B9EA3",
"{  c #3D9CA0",
"}  c #3C9EA1",
"|  c #3D9CA2",
" . c #399FA4",
".. c #3D9EA4",
"X. c #3C9FA4",
"o. c #3A9DA1",
"O. c #38A0A3",
"+. c #3AA0A2",
"@. c #3BA1A3",
"#. c #3AA2A3",
"$. c #3DA1A3",
"%. c #39A1A4",
"&. c #39A0A5",
"*. c #3AA0A4",
"=. c #3AA0A5",
"-. c #3BA1A5",
";. c #3BA3A4",
":. c #3AA2A5",
">. c #3AA1A6",
",. c #3BA1A6",
"<. c #3AA3A6",
"1. c #3BA3A6",
"2. c #3BA2A7",
"3. c #3AA3A7",
"4. c #3DA0A5",
"5. c #3CA2A4",
"6. c #3EA2A4",
"7. c #3EA1A6",
"8. c #3CA2A6",
"9. c #3CA2A7",
"0. c #3DA3A7",
"q. c #3BA4A7",
"w. c #3DA5A6",
"e. c #3CA4A7",
"r. c #3DA7A7",
"t. c #3BA2A5",
"y. c #3CA3A8",
"u. c #3FA2A8",
"i. c #3AA6A8",
"p. c #3CA5A8",
"a. c #3DA5A8",
"s. c #3EA7AA",
"d. c #3DA5A9",
"f. c #3BA8AB",
"g. c #3CA8AA",
"h. c #3CA8AB",
"j. c #3DA9AC",
"k. c #3FA8AA",
/* pixels */
"$                         O                                             +                         # ",
"@ 5 t w 8 q 7 7 7 7 7 w 2 = 7 3 3 2 4 5 6 7 7 9 8 0 9 9 7 7 6 4 4 1 4 7 * 5 t e r r r e e r e t 5 O ",
"  a r.>.>.8.>.q.>.>.#.g.t 4 g.>.>.#.q.>.8.>.8.>.y.q.3.3.q.>.q.q.8.$.8.g.7 t g.#.>.>.3.3.r.>.8.d.u   ",
"  y  .S K ( ( ( X.E B >.r 7 >.E B K K K K K B X.B K K K K K K H B K B >.r t 8.M K ( K A B K K #.y @ ",
"  y 8.K ( ( ( ( K K v >.y r $.B P ( #.E K B K ( K X.( ( ( K H ( P $.S >.e u >.Q K B X.B A ( B $.r @ ",
"  y >.K ( ( ( ( ( K ( >.s r r.( ( ( ( 8.>.8.#.#.K X.( #.>.>.O.O.#.#.K r.y h >.>.#.>.>.q. .8.X.>.y   ",
"  t K l n B B B B j l K u w B h l s p p u p p s j s s g s s s p p p p h e p M s p p u y u u p h r @ ",
"  > u u u u y t y u y u u e u u t t w 6 5 6 6 e 5 7 t t w 6 7 7 7 7 7 8 8 r r r w 7 7 5 3 5 5 w : . ",
"  2 8.K ( ( ( ( >.#.K (  .8.( ( ( #.8.8.>.8.>.y.y u 3.#.>.>.>.$.>.8.>.>.#.>.>.#.8.>.>.8.>.$.#.r.w   ",
"  4 8.B K X.( K K ( ( K K K K #.( B K B B z K >.y u &.K B ( K S K A K K K K ( K K A S K K B B 8.w   ",
"  1 X.B ( B S Q z K ( z B S K B Q ( S K K K ( ( u i ..K K K B K B A Q E B B D A ( E E S B K M >.e   ",
"  5 r.#. .8.( >.>.>.u.u.8.r.>.r.>.8.#.>.>.>.( q.s t y.#.>.>. .#.>.8.8.8.>.8.8.#.>.>.#.r.q.8.#.d.e   ",
"  3 s u u y u u t w e r r r t y t r u u u u s g 0 & s u y u s s a i u p u u y t u y u e 5 4 2 3 * O ",
"o < 8 q 8 w 8 r t t t t 9 3 t e 7 6 7 e e e 0 r r r 8 9 q t u u y 0 w 7 = w t 7 6 5 6 4 4 4 4 5 1 + ",
"  u d.8.8.8.8.>.$.8.>.d.g t d.>.r.r.>.8.q.r.>.8.>.8.>.>.>.>.( >.>.r...r.t i d.r.r.8.>.r.>.r.8.d.u   ",
"  y >.B ( B K ( K K B #.p w >.B B B K B B K K Q ( B K K B ( K K A B M #.u u X.B E B ( B K K B #.y   ",
"  y  .B B K B X.E K ( ( j e X.B B A K K K H K K K K ( E K K ( K K K z >.y u >.B K K K K A ( B X.y   ",
"  u u.( 8.#.X. .>. .>.>.B u r.>.8.8.8.>.q.>.>.>.#.>.>.u.>.>.>.>.q.;.#.d.u u r.8.8.>.>.>.8.8.8.d.u   ",
". w s s s s s s s s p s w 8 s u u u y y y y y y t t t t y y y u u u u u 7 w u y y y t t t t y p w @ ",
". = p p u u u y y y t r 0 u u u u u u u u u u u , 4 t e 0 r t e e t 0 e e w 9 8 e r e r r r w t 1   ",
"  3 y.O.#.>.( ( X.8.#.$.8.q.#.#.$. .>.8.( >.8.d.u s r.8.;.>.q.q.q.>.;.>.>.u. .8.8.8.>.q.u.>.>.d.6   ",
"  3 #.H B S ( X.B A ( K A B B K K B K B B K ( ( u s K B D K K K K K K K E ( E K K A K ( K K M >.5   ",
"  7 >.B ( X.A B B ( B X.Q K K A K B K K K K K ( p p >.S ( K K K K B B X.( ( K ( ( S S K B K K >.7   ",
"  9 d.( #.>.#.#.>.>.( #.#.>.>.8.>.8.8.8.>.>.>.q.h j 8.#.>.>.>.>.8.8.8.8.8.8.q.>.8.>.8.8.r.8. .y.4   ",
"  ; s s s s p s s s s p u p t 7 y y y t y y u y 5 t u y y t r e 0 8 w 9 7 9 7 5 7 r r 0 e e t t ;   ",
"X w s u u p u u u u u u e 5 u t t t t e 7 t a u u u u s s p t y y t y y 1 2 p t t y t t 8 7 u p 0 o ",
"  y 6.( >.&.>.( >.#.X.u.h g q.>.>.u.>.q.d.8.#.8.X.#. .#.>.( d.q.r.8.#.d.7 r k.>.3.>.>.$.d.r.#.r.u   ",
"@ t 8.B ( ( ( ( K ( E  .u u #.v K K ( Q A B E S B K K K ( K K K K A B r.0 t  .E K K Q E M K B 8.y   ",
"  u ..z B K K B B K K ( p 0 ( B K S B K S K B K E ( S ( ^ B K S S B B >.w y #.K E K ( B K B B 8.u   ",
"  u q.#.>.$.8.8.8.>.>.r.B w d.#.>.>.>.8.8.$.8.>.>.>.( #. . .( 8.#.$.#.q.t s r.>.>.y.u.r.8.>.8.d.u   ",
"X 7 u 7 e r r t t t t t e 1 r r e r t t r t r e e e t u u t t t t t r y 3 7 y r r 9 7 7 7 9 7 t 5 @ ",
"  = u u s p u u u i u u u p u u s s s p s s a l 4 9 l g l g g s s y u u u u y y y r r t t t y u =   ",
"  > 8.8.>.$.>.>.>.8.8.#.>.>.8.8.8.#.( >.$.#. .d.t p r.B X.( >.>.#.>.>.$.8.#.8.8.q.d.y.>.r.8.>.d.6   ",
"  1 ( B E K K K B Q K E A Q E K B ( ( B K B (  .u g K E ( B K B B K B ( K ( B A Q K K K B K B >.e   ",
"  3 #.B E ( E K K S E B B ( K H K B K B B E S ( t s ( K K K K B B K K K B A S B K B B A ( K K #.e @ ",
"  5 8.X.( >.>.>.8.8.r.8.d.8.q.>.>.q.u.r.6.r.8.8.u B d.>.8.8.8.>.>.>.r.>.8.8.8.8.>.r.8.>.8.8.>.d.r   ",
"  4 g u y t t r w e t w 7 7 3 3 < 3 q 8 0 t y y e w t t e w e e e e r e e w w 9 7 7 w e r t t u 4 @ ",
"  t ( h g l g p t u u u 3 * u t u u e t y y s a g s s u u y y u u u i s 5 6 p u p p u u u p a M t   ",
"  u 8.K #.( $. .8.r.U k.u 3 g.8.>.>.r.$.>.8.>.#.( ..>.>.8.q.r.>.#.8.X.r.e t k.#.>.>.>.>.8.(  .r.u   ",
"  y $.B K B K K A B B #.r 4 8.B K B B M B X.B K K E K S B A B K K B B #.3 t 8.B K K K B K X.B  .t   ",
"  y >.B K K B X.K K B q.u e r.B ( (  .X.( ( K ( K K E B K K K K ( ( K >.: u >.( ( K K K ( ( B 8.y   ",
"@ u q.(  .X.#.( >.#.X.>.t e r.K #.B j B (  .>.#.>.>.>.8.u.>.>.#.K ( ( l * s q.( #.^ #.( ( #.( 8.p   ",
"o < 7 9 7 t u y t t y 5 = < w q 5 5 7 5 4 5 9 e 7 8 0 9 7 8 w e 8 6 6 3 = t y e 0 9 7 5 5 6 w w 2 O ",
"O % s s f j l h g g j l B g g g l B ( E s j s B 5 t g u p p s h l j B ( ( M g j j j l j g h h B 4   ",
"o * P 8.( ( (  ...( #. .P  .X.A ( ( ( ^ $.( #.>.s s 8.8.( >. .X.( X.( ( ( (  . .( ( ( X.P A P r.4   ",
"  > ( K ( ( ^ ( z K ( K ( K K #.( ( ( K K ( B >.s j ( B ( H ( ( E ( ( ( H K ( ( ( ( K ( K #.Q >.2   ",
"  3 >.K K K B S ( E K B B X.K ( K K K K E K K ( p s ( ( H ( ^ z ( K Q K B K S ( ( ( ( B K K K  .3   ",
"  5 d.>.8.8.8.r.>.8.>.r.#.>.>.( >.q.>.>.>.>.>.>.s g u.8.q.3.&.3.>.q.>.>.r.>.>.>.E ( K >.>.8.>.d.5   ",
"o = 9 6 5 4 6 7 e 9 8 9 7 4 3 < 3 6 7 6 4 3 4 6 > 4 r 7 7 6 6 4 5 5 4 5 7 6 7 3 * = = < 3 5 7 8 = o ",
"# @                                                                             X X             O # "
};
