/* XPM */
static char *_d85e5eeda6a45298037265aa9e86fd9uCTBmnQSTuDq0kvG[] = {
/* columns rows colors chars-per-pixel */
"50 50 141 2 ",
"   c #1D001E",
".  c #1E0A1F",
"X  c #1D141F",
"o  c #20221F",
"O  c #1D0320",
"+  c #1E0D20",
"@  c #1E1021",
"#  c #1F1820",
"$  c #200F21",
"%  c #1D2120",
"&  c gray13",
"*  c #213623",
"=  c #243E25",
"-  c #234325",
";  c #264C27",
":  c #264A29",
">  c #265126",
",  c #265229",
"<  c #285729",
"1  c #275D2A",
"2  c #295C2A",
"3  c #27612A",
"4  c #2A642C",
"5  c #2C6C2E",
"6  c #2D732E",
"7  c #2F782F",
"8  c #307A2F",
"9  c #2D6E30",
"0  c #2E7430",
"q  c #2F7A31",
"w  c #307531",
"e  c #317C32",
"r  c #2F8133",
"t  c #328434",
"y  c #348C36",
"u  c #338638",
"i  c #358C38",
"p  c #359237",
"a  c #399737",
"s  c #379638",
"d  c #37943B",
"f  c #37963A",
"g  c #369539",
"h  c #369239",
"j  c #389039",
"k  c #399339",
"l  c #38923A",
"z  c #389739",
"x  c #38973B",
"c  c #38953C",
"v  c #389639",
"b  c #379B3B",
"n  c #379B3A",
"m  c #3A993B",
"M  c #399A3B",
"N  c #389C39",
"B  c #389C3A",
"V  c #399D3A",
"C  c #399D3B",
"Z  c #3B9C3B",
"A  c #389E3B",
"S  c #399F3B",
"D  c #3A9E3B",
"F  c #38993C",
"G  c #3A9B3C",
"H  c #3A9B3E",
"J  c #399F3C",
"K  c #3A9E3C",
"L  c #3B9F3C",
"P  c #3B9F3D",
"I  c #3A9E3E",
"U  c #3A9F3F",
"Y  c #3B9F3F",
"T  c #3C9D3C",
"R  c #3D9F3C",
"E  c #3D9E3D",
"W  c #3E9E3D",
"Q  c #3D9E3F",
"!  c #3B9E3C",
"~  c #37A03B",
"^  c #3AA03A",
"/  c #3BA03A",
"(  c #3BA13B",
")  c #39A23B",
"_  c #38A33B",
"`  c #3AA33A",
"'  c #39A43A",
"]  c #3BA43B",
"[  c #3AA53B",
"{  c #39A63B",
"}  c #38A13C",
"|  c #3AA03C",
" . c #3AA03D",
".. c #3BA13D",
"X. c #38A23D",
"o. c #39A23D",
"O. c #3AA33C",
"+. c #3BA13E",
"@. c #39A33E",
"#. c #3AA33E",
"$. c #3AA23F",
"%. c #3CA03D",
"&. c #3CA23C",
"*. c #3DA33D",
"=. c #3CA03E",
"-. c #3DA13E",
";. c #3CA23E",
":. c #3CA23F",
">. c #3DA33F",
",. c #39A43C",
"<. c #3BA43D",
"1. c #3AA53D",
"2. c #39A63D",
"3. c #3BA63C",
"4. c #39A53F",
"5. c #3AA43F",
"6. c #3BA43F",
"7. c #3BA63E",
"8. c #3AA73E",
"9. c #3DA63D",
"0. c #3FA63D",
"q. c #3CA53E",
"w. c #3EA43E",
"e. c #3DA63F",
"r. c #3CA73F",
"t. c #3BA33D",
"y. c #3BA83F",
"u. c #3BAB3F",
"i. c #3DA83E",
"p. c #3EA93F",
"a. c #3DAA3F",
"s. c #3EAB3E",
"d. c #3DA93E",
"f. c #3CA040",
"g. c #3BA540",
"h. c #3CA540",
"j. c #3CA641",
"k. c #3CA440",
"l. c #3FAA40",
"z. c #3EAB40",
"x. c #3DAA40",
/* pixels */
"&                         @                                             X                         % ",
". 5 t q 7 7 7 6 0 7 7 w 3 ; 6 4 3 3 5 5 6 7 7 7 q 7 q q 0 0 5 5 5 3 4 7 - 6 u q t q e t e t e t 6 . ",
"  i i.` [ 6.6.6.6.6.r.i.t 4 i.6.#.#.[ { 6.6.6.#.6.6.6.[ 6.6.g.6.6.6.6.s.0 t l.#.[ 6.{ 6.[ 6.[ i.y   ",
"O y #.C ` &.C C L L L &.t 6 6.Q Q L #.L C L L L ~ ` C #.L L L #.` C C 6.e r 6.L C C #.A C #.Q r.y   ",
"  y #.U L #.L L #.Q C 6.t t h.L C #.L #.Q Z L #.#.C L L ` A #.C Q #.N 6.e y 6.L &.Q Q Z &.Q C 6.y   ",
"  y r.A &.Q L #./ / ` &.g t 6.L &.&.#.#.#.r.f.&.&.&.#.` #.#.#.#.#.` Q h.y H 6.f.#.#.6.#.6.#.&.r.y   ",
"  t C L b b N N H H N C h q C N c c l i y p l p g c l k h g p p h h h s q h N g p i y y y y p c t   ",
"  , y y y i y t i y y y y e i y u t e 6 6 9 6 e 5 7 y t q 6 0 6 0 0 0 q 0 t t q e 7 7 5 3 5 6 w < . ",
"  3 g.#.#.L #.#.#.#.&.&.#.#.#.#.#.#.] r./ #.#.r.y i i.#.6.#.r.#.#.&.6.#.r.#.#.#.&.#.r.[ [ 6.6.i.e   ",
"  4 #.L C #.C L C #.L L #.L C L ` ` Q Z #.#.Q #.y y #.C &.L L L #.Q &.L Q C #.L L L L #.Q L L [ 7   ",
"  3 &.Q &.L &.Q L L C L C L L L Q L C Q L Z C &.y j Q #.C #.L L L Q C #.L L L L L Q C C C L C 6.7   ",
"  5 6.` [ 6.#.&.g.g.g.&.y.&.6.#.r.6.r.6.r.6.#.r.l t i.~ r.#.6.f./ r.&.6.#.[ &.6.&.6.6.y.i.6.[ i.8   ",
"  4 s y y y y y t e e t e r y y t t y y y y p N e = g i y y g h i y y i h p y t y y i e 4 4 3 4 - @ ",
". 2 e w w q 8 t t t t t w 4 t 7 w 5 0 8 t 7 e e q q q 0 w t p y y e e w : w t 6 6 9 5 5 5 5 5 5 3 X ",
"  y r.` r.6.r.6.#.#.#.r.b t i.#.6.h.r.&.6.6.[ r.y.r.6.r.6.#.#.&.&.h.#.i.t y i.6.r.r.r.r.r.r.6.i.h   ",
"  y #.C Q L Z C L L Q ` h 8 &.L L L &.Z L L L Z #.C C #.C L L Q L Q C #.y y #.C L Z Q C L C C #.t   ",
"  y #.Q L Q L #.L L ` #.c t &.L &.L L #.Q ` L Q L L Q #.L C #.Q Q L C &.i y 6.C Q L #.L L L b #.y   ",
"  y 6.&.#.#.#.6.#.&.#.6.L y g.6.#.6.6.#.r.0.#.[ ` r.&.r.#.6.6.[ ` #.#.p.y h i.&.r.[ r.&.r.6.#.i.y O ",
". e c p l g g g g c l g e e g i p y y t t t y t t t t t y y y y y y y h 6 w y t y u t t t t y h q O ",
"  ; h p p i y y i t t e e y h y y y y h p h i p < 5 t e 7 e t e e t t 7 q q q e e e r r t e q t < O ",
"  4 h.&.f.&.#.6.#.r.` r.#.r.` #.&.6.f.#.#.#.f.j.y p i.#.6.[ [ 6.6.6.[ #.#.r.r.0.&.f.#.6.6.6.#.i.0   ",
"  4 [ f.C #.Q C Q L L L Q L Q L C #.L L L L L ` h h #.` ` L L #.L Q #.` Q Z Q C L #.L L L ` L #.9   ",
"  7 r.N Q L L L L L Q L C ` C #.Q #.L #.H L L &.y l #.C L #.L L #.C L C L L C #.L ` L #.L L L #.0   ",
"  w r.#.#.#.#.#.f.#.#.#.#.6.6.6.[ &.6.` 6.#.#.6.b N 6.#.#.6.6.6.6.&.r.r.] 6.6.6.6.6.6.6.6.r.#.i.5   ",
"  , g h k s p h c g p h h y t 7 t t y y y i y y 5 t y y y t t e q 7 e 7 0 7 6 5 7 r e q e e e y > O ",
"O q g y y p y y y i y y e 6 y t t t t q 0 t y i y i h p h y i t y t t y 2 3 p y t t y r q 0 y h q O ",
"  y g.#.f.#.&.6.&.#.&.#.N h 6.[ { 2.[ 6.r.#.&.#.6.#.#.r.#.#.r.r.6.[ 6.s.q e z.6.6.6.6.6.l.6.#.r.y   ",
"  y 6.&.} ` C #.#.L f.#.i p #.C L #.Q #.Q C U L #.Q C C L L L L U L &./ e t 6.C ` C Q L C #.L r.y O ",
"  y #.C Q #.Q C ` L C ` l q #.C L L L U C #.Z L Q #.L &.L L L Q C / N #.q y 6.L L ` L L #.Q Z #.y O ",
"  y i.6.6.` ] r.6.6.6.r.N e r.` #.` #.#.6.` r.&.[ 6.#.6.#.#.#.#.#.#.#.p.t g i.6.6.6.r.g.6.6.] l.i   ",
"O 7 i w e t t t t t t t t < e t e t t t t t t e e e t i y t t e t t q y 4 q i e e e 0 0 0 7 w e 5 + ",
"  : y y l p y y i y i i p y p y h p g p k h y s 5 6 L g N c N c h y i i y y y y t e t t t t y i : O ",
"  > 6.6.#.&.6.&.6.[ #.#.r.[ ` &.6.#.#.#.g.6.#.r.t s 6.` &.&.#.#.#.6.6.[ #.r./ r.6.6.6.r.r.f.r.i.6   ",
"  < / C L ` C #.C Q Q L C Q L L &.&.L L L Q #.6.y c &.C Q #.Q f.#.L L L Q &.Q C Z ` #.C L L N r.7   ",
"  3 6.C Q Q L ` C L L #.L ` L f.Z C C H L #.C ~ t g &.L C C L L L L L L C C L Q &.Q L &.C Q Z &.t   ",
"  5 r.r.#.f.#.6.i.i.6.6.6.6.6.6.#.6.r.r.g.6.6.i.i L 6.[ 6.r.6.&.6.y.6.6.r.r.h.&.[ [ 6.[ 6.[ #.i.t   ",
"  4 c y y y t t q t t e 0 6 4 3 2 4 7 e e t t y t q t t e 0 e e q e e t 7 7 7 7 w w e e t t t p 4 O ",
"O t &.c a c c h t y y y 4 - p y y y e t u y p h g g h p y i y y y y y g 5 5 g y y y y i y h h N t O ",
"O y r.&.~ &.#.#.6.[ #.r.y 3 i.6.6.6.6.h.6.6.#.#.#.#.#.&.g.[ 6.#.[ ` &.r.t t i.6.r.6.#.&.f.#.#.r.y   ",
"O t / / #.L Q L L #.C 6.r 5 6.A L C L L Z #.C L U Q L L #.Q #.L #.Q L #.3 t r.C Q ` #.L L L L ` t O ",
"  y #.L C #.C Q L L C 6.y e 6.` C &.#.` Z C Q #.L L L L L L L L #.L &.r.< y #.C C ` C ` L #.Q r.y   ",
"  y h.&.&.&.#.#.#.#.C r.t e r.` ` Q H b ` &.#.&.#.6.#.` 6.6.f.&.&.&.L a - p r.` &.#.Q &.&.f.` 6.y O ",
"$ 2 8 6 e t i y t i t 9 : 3 q 6 5 6 7 5 4 5 e e e q e w 7 q e e w 9 9 3 ; t t t e 7 6 5 5 5 q e 2 X ",
"@ * l c c N s N g H H N L C g c a C C f.N c l N 5 t N p y i h N a N H &.&.N c b H b N c N N s A 5   ",
". - &.#.[ C &.Q Q L ` 6.Q &.Q &.&.&.#.C f.L #.6.h c 6.r.6.#.` #.&.#.Q ` ` &.L L L #.#.&.&.L #.h.5   ",
"O , #.Q C #.#.` ` #.#.C C #.L #.C #.L L ` } L &.g g #.L Q L ` L #.C L L #.C L #.#.C L ` L #.C #.1   ",
"  4 C Z #.Z ` C Q L #.L C #.C Q #.L L L L L L ` h g L L ` L C #.L #.L L C L L L C #.#.C &.C C &.4   ",
"  5 i.r.6.&.6.6.6.#.[ [ 6.6./ 6.6.6.6.6.g.#.6.i.c g r.#.6.[ 6.6.6.6.6.6.6.2.6.#.L L ` #.6.6.6.l.5   ",
". ; 8 6 5 5 5 7 7 e 7 7 0 9 3 2 4 0 7 6 5 4 4 0 , 5 e w 6 6 5 5 5 5 5 5 6 5 6 4 - ; > 1 4 5 7 q : . ",
"% $                                                                             .               @ % "
};
