/* XPM */
static char *_00e633dab9f491fab22804cf1e10788prnsZ4d05jdkLaha[] = {
/* columns rows colors chars-per-pixel */
"50 50 60 1 ",
"  c #00001E",
". c #050B1E",
"X c #0A0D1E",
"o c #0D121E",
"O c #10141D",
"+ c #15181F",
"@ c #000120",
"# c #030A20",
"$ c #090E21",
"% c #0E1121",
"& c #111421",
"* c #222222",
"= c #343223",
"- c #3E3E26",
"; c #413E26",
": c #444225",
"> c #494526",
", c #4C4A27",
"< c #4E4B29",
"1 c #504D27",
"2 c #524E29",
"3 c #565429",
"4 c #5A562A",
"5 c #5D5A2B",
"6 c #625E2C",
"7 c #65612C",
"8 c #6A652E",
"9 c #6D692E",
"0 c #726D2F",
"q c #76722F",
"w c #78732F",
"e c #676630",
"r c #6C6730",
"t c #6E6930",
"y c #736E31",
"u c #767131",
"i c #7A7532",
"p c #7E7933",
"a c #807732",
"s c #837C34",
"d c #868135",
"f c #8B8536",
"g c #8E8837",
"h c #8B8538",
"j c #8F8938",
"k c #928C37",
"l c #938C39",
"z c #998F38",
"x c #989137",
"c c #96903A",
"v c #9D963C",
"b c #9F993C",
"n c #A0973D",
"m c #A29B3D",
"M c #A89E3D",
"N c #A6A03E",
"B c #A9A13E",
"V c #9D9540",
"C c #A49C40",
"Z c #A89F40",
/* pixels */
"*@          @o                      &           @*",
"%8piiuyyy9yi5>067589000iuiqi00988570;0dappipppas8o",
"@gBmmmmmmmmZd7BmmmmmmmmmmmmmmmmmmmmZudNvmmmmmmmNg@",
" dmvbvvbvvvCs0mvvvvvbvvvvvmvvvvnvvvmiamvvvvmvvvbd@",
"@fmnvbvvvvVCssmvvnbbvvvvvvvmmvvvvvvmphmvvvvvvvvmd@",
"@dmvbbvmvCvmzsmvvmbbCmnmbbmbnmvmmvmCdxmvmvbmmmCmh@",
"@svccvvvcczvhivkxlkghhkjzczkkkkkkkjcigxxkgffhhgks.",
"@2kdhddsffdjdihhsawyty0i8ydpi9qqyyyuipsiwqq9789u3.",
"@5mVbbbbmmbmmmbmmmmmmmmNdjmmmvmmmmmvmmbbmmmmmmmMi ",
" 7mbvbvvvnvvvvmvvvvvvbvmdfbvbbbbvvvvbvbvvvvvvvvmi ",
" 6mvbvVvvvvvvvvvvvvvvvVVhgbbvvvvnvvvvvvbbvvvvnvmi ",
" emmmmbmmmCmmmmCCmmmCCmCjsNbmmbmmmmmmmmmmbmCmmmmi ",
" 6khffffsippsasdspdhhkkzi;ghfhkgghghkhddfhhp8756;O",
"X4wuquipspssu6diy9qipiiipiwqusfhspuu>isy9t9788885&",
"@hmmmmCbmCmCzsNbCmmmmmmmmmmmmmmmvmmNshNmCmmmmmmNg@",
" dmvvvvvbvvmgumvvvvbvvvvvvvvvvvnvvvmdhvvbbvvvbvmd ",
"@dCcvbvvvcvvlpmxvvvbvvvvvvvvvvvvvvvmddmvvvvvbvvmd ",
"@hCCbmbmmCmmnhmmmmmmmmmmmmmmmmmmmmmNhkBmmmCmmmbmh@",
".ilkkkkklkkkpqlkghhdsddssssddhhffddgyyhsdsdsssdki.",
"#,kkghfhfdssidghffhhkggg38siwwsapsppiiuqipppppis3.",
" 6mmvmbbVmmmmmmvbmmbmbmmhkmvmmmmmmmmCCmCCmmmmmmmy ",
" 7vvvvbvvvvvvvvnvvbvvvvmklmvvnvvvvbvvvbbvvbVvvvme ",
" 0mvvbvvvvvvvvvvvvvvvbvvhkmvvvvvbvvbvvvvnvvvvnvmy ",
" uNvbmmvmmvmmmmmmmmmmmmmclmmmmNmmmmmmmmmmmmCmmmC8 ",
" <kkkkkkkkkkfgaqdddsddhd9phddssiiiuququeupwpiish<@",
".ikgjhhhfffgw0fdssspqsghfkjkkhdddspf45kdssdsiidki.",
" fNvmmmmmmmmxlNmmmmmmmmmmbbmmmmmmNbNipNbmmmmCCvmg ",
"@hmvbvvvbvvmghmxvvvvvvvbvvbvvvvnvvvNusmvbvvvvnvmd ",
" dmvvvvvnvvmgibvnvvvvvvvmvvbnvvvvvvbidmvvvvVvvvmd@",
" hNmmmmmmmmmvimmmmmmbbmmmmvvmvmmmmvNskMmmCCmCmmNh ",
".qd0wspssssss4ispsspspsaiidhddsspssd7ydsiiuy0uqi9o",
".:ggkgfghffhhhghjkkkkkgl80vcckkzkdfhhhdddspsssdg,@",
" <CbmmmmmvmmmbmmmmbmvmmmskmmmmVmbmmmmmbmmCNmmmmN0 ",
"@4vvvvvvvbVvvvvvbvvvvvvvfxmxvvvvvvnvbvbvvbvvvvvmi ",
"@6bvmvvvvbbmvvvvbvvvvvvndlvvvbbmbbvvbvvbvvvvvvxms ",
" tmbvmmmmmmmCmmmmmmCmmnMfxMmmCmmmmmmmmmmmbmmmmmNs ",
"@7zhhdspippiu08656uippdhpissiiiiiipiii00yqwipssh6@",
" svcxlcjsdgk6-gdffipdfgkckkghddhhhhz88khhhggkkgvs.",
"@hmvvmbbmmmmf5NmbmmmbbCbmbbmbmmmmmmMsdNvmmmmmvmmh ",
"@dmvvvbvvmbmi8vvvvbvvbvbvvVvvvvvvvvv5smvvvvvvvvmd@",
"@dbvvvvvvbvmhimvbbbbvvbbvnvnvvvvvbvm3hvvvvbvvvvbd@",
"@hmCmmmbmmmmsiNbbbcvvCbbnmmmmmmmmvvk-kmmmmvbCCmmj@",
"o5uy0shhsdd9>5i099097tipuiiu0iiaw9971pdpwqytetui5O",
"&=jlzzckkccvvckxkvvbckjx8sxhghklccvvmxxcvvzkcclv7 ",
"$:mbbvmCnmmmmmbmmmmvVCnClkmmmmmmVbbbvmmmvmvmmCvm8 ",
"@2bvvmbvvvvvvvvvvvvvbvvmlzmvvvvvbbbbvnvvbvbvvvbv5 ",
" 7bvnvvvvvnvvnvvvvvmvbvnkkbvbnvnvvbbvnvvbbvvvvvv6 ",
" 9mmmmmmmmmmmmmmmmmmbmCClzmmmmCmmmCmmmmmvbbmmmmBt@",
"X,i98880iiwuy86460008760<7iuy9t88888y0y6:><46ryi>$",
"*$                      .       @       ##@@    %*"
};
