/* XPM */
static char *_51464e2c0e84ebeaa41c551e4cb196bKWxhAYQZviADoDAu[] = {
/* columns rows colors chars-per-pixel */
"50 50 138 2 ",
"   c #001D1D",
".  c #0C1F1F",
"X  c #101E1F",
"o  c #10201F",
"O  c #011E20",
"+  c #0B1F21",
"@  c #131F21",
"#  c #062021",
"$  c #0D2021",
"%  c #202021",
"&  c #352224",
"*  c #3E2524",
"=  c #442525",
"-  c #4B2626",
";  c #4F2729",
":  c #562829",
">  c #5C2A2A",
",  c #642C2C",
"<  c #6C2E2E",
"1  c #712E2F",
"2  c #73312F",
"3  c #79312E",
"4  c #6E2F30",
"5  c #722F30",
"6  c #753131",
"7  c #7B3232",
"8  c #843534",
"9  c #8B3635",
"0  c #8C3836",
"q  c #8B3638",
"w  c #8E3A38",
"e  c #8E3938",
"r  c #903636",
"t  c #913736",
"y  c #913737",
"u  c #903636",
"i  c #903836",
"p  c #903837",
"a  c #923837",
"s  c #933837",
"d  c #923837",
"f  c #9A3B37",
"g  c #993C37",
"h  c #923738",
"j  c #913938",
"k  c #923838",
"l  c #933938",
"z  c #923A38",
"x  c #943938",
"c  c #943839",
"v  c #943A39",
"b  c #953A39",
"n  c #963B3A",
"m  c #973C3B",
"M  c #943939",
"N  c #9A3B39",
"B  c #99393B",
"V  c #983A3A",
"C  c #993B3B",
"Z  c #9A3A3B",
"A  c #9C3A39",
"S  c #9F3B39",
"D  c #9D3B3A",
"F  c #9E3A3A",
"G  c #9F3B3B",
"H  c #9B3C38",
"J  c #9A3D38",
"K  c #9B3E39",
"L  c #9A3C3A",
"P  c #9B3C3A",
"I  c #9B3D3B",
"U  c #9C3D39",
"Y  c #9E3C39",
"T  c #9C3D3B",
"R  c #9F3D3A",
"E  c #9E3C3B",
"W  c #9D3E3A",
"Q  c #993B3C",
"!  c #9B3B3C",
"~  c #9B3B3D",
"^  c #9D3B3C",
"/  c #9F3B3D",
"(  c #9A3C3C",
")  c #9B3D3D",
"_  c #9C3C3D",
"`  c #9F3D3C",
"'  c #9E3C3D",
"]  c #9C3E3C",
"[  c #9D3E3C",
"{  c #9D3D3E",
"}  c #9C3E3E",
"|  c #9D3C3B",
" . c #A0393A",
".. c #A33D39",
"X. c #A03C3A",
"o. c #A13D3B",
"O. c #A23C3A",
"+. c #A33D3B",
"@. c #A03E3B",
"#. c #A23F3A",
"$. c #A43C3B",
"%. c #A43E3A",
"&. c #A23B3C",
"*. c #A23B3E",
"=. c #A03C3C",
"-. c #A13D3D",
";. c #A33C3D",
":. c #A03E3D",
">. c #A23E3C",
",. c #A33F3D",
"<. c #A03C3E",
"1. c #A13D3F",
"2. c #A13F3E",
"3. c #A23E3E",
"4. c #A33F3F",
"5. c #A53D3C",
"6. c #A73D3D",
"7. c #A43E3C",
"8. c #A53F3D",
"9. c #A73F3C",
"0. c #A63E3D",
"q. c #A43D3E",
"w. c #A53D3E",
"e. c #A53E3F",
"r. c #A73F3E",
"t. c #A63E3F",
"y. c #A23D3C",
"u. c #A83F3C",
"i. c #A93F3F",
"p. c #AB3F3F",
"a. c #A83E3E",
"s. c #A4403D",
"d. c #A8403E",
"f. c #A23E40",
"g. c #A33F41",
"h. c #A43D40",
"j. c #A33E40",
"k. c #A93F41",
/* pixels */
"% O                     O @                                             X                       # o ",
"+ < 7 7 3 5 2 1 2 4 6 2 , = 6 , , > < 4 < 6 6 6 7 6 6 7 6 < < < < > , 2 = 1 8 7 7 7 7 7 7 7 7 8 < @ ",
"O e k.1.$.%.9.%.%.9.<.u.8 , k.U 1.1.o.o.9.9.o.1.o.9.1.o.1.9.o.%.1.1.=.u.5 8 9.U %.=.%.9.o.s.1.9.e   ",
"O 8 / P / [ U [ U P F o.7 6 o.P F [ [ U [ U U P P U U P U P [ U U / f 1.7 8 1.F U [ U F P P F 1.8   ",
"O 9 f./ F F [ F / / P 1.8 7 9.F U F F [ F [ F F / U U o./ [ [ F <.F V %.7 9 1.U / U ) Q P ) ) 1.8 O ",
"O 8 1.U [ [ F [ o.F U 1.s 7 1./ U [ o.1.1.1.o.1.1.[ =.1.<.F <.<.1.$.1.%.8 n o.=.[ <.o.1.1.o.U 9.9 # ",
"O 7 P V Q Q n Q V V n / e 7 V n Q n r i 9 9 e r i s l i i i r i 9 i r i 7 9 B s h h 9 9 9 9 9 l 8   ",
"# : 9 9 9 8 9 8 9 9 8 9 8 3 9 9 8 7 2 1 < 2 1 7 < 6 9 7 7 2 6 2 4 2 6 7 5 8 8 7 6 5 2 < , < < 6 : + ",
"  > 1.U F U =.o.F [ <.U 1.1.o.=.[ 1.1.1.<.f.<.9.8 r 9.o.1.o.=.o.1.1.1.1.1.o.<.<.1.<.%.o.o.1.<.u.6 O ",
"  , 1.U / U F U [ =./ =.U V U <.F U U P F U U 1.8 9 o.P P F U F U [ U P U U [ U F [ [ [ U P F 1.6 O ",
"  > o.f P [ [ U F Q P Q Q F [ / [ U U / U [ F U e e U P U [ U [ U U P o.U U U V U U F P Q P V $.7   ",
"  < 9.1.9.o.1.[ o.9.9.1.9.1.1.$.o.1.1.=.1.<.=.k.9 8 %.1.1.1.F 1.1.o.1.1.1.1.9.9.<.9.[ 9.o.9.%.j.7   ",
"O , r 9 9 8 8 9 8 2 7 7 7 7 8 8 8 7 e q 9 r 9 c 7 * i 8 8 9 i e 9 9 9 8 h 9 9 8 8 8 9 7 < , > , * + ",
"+ : 7 1 6 7 7 7 8 8 8 8 2 , 8 7 2 < 6 3 7 7 7 7 7 7 7 7 7 8 9 9 9 7 6 6 = 2 8 5 5 4 < < , < , < > @ ",
"O 9 9.<.f.9.1.1.[ j.1.u.V 8 9.1.1.9.1.%.=.%.o.1.9.f.1.1.1.9.1.1.1.o.<.9.8 9 9.o.9.1.1.%.9.1.1.u.q O ",
"O 8 [ [ [ V [ P V U U [ r 7 F V U P [ U [ [ U U [ P P F P U V U U U V 1.8 8 =.V [ U P P / Q U U 9   ",
"  8 [ F U U P P [ U [ U c 7 o.V U U U [ U U [ U [ U F P P U [ [ U U F <.9 8 =.F P [ [ U U U P 1.8 O ",
"O 9 9./ <.<.[ / <.<.<.1.F 9 9.<.1.1.1.1.o.1.1.o.o.1.o.=.o.o.1.o.o.o.[ u.9 l u.1.1.o.o.s.o.o.1.9.e O ",
"O 7 l h l l l l i h l h 7 3 n 9 9 8 8 8 9 8 9 8 8 8 8 8 9 8 9 8 9 8 8 h 2 7 9 8 8 9 8 8 8 8 8 i 7 O ",
"  - l 9 e 9 9 9 9 8 8 7 2 9 9 e 9 9 e 9 9 9 9 r : < 8 3 7 7 8 7 7 8 7 7 6 6 6 6 7 7 7 7 7 7 7 8 : O ",
"  , o.U o.1.=.<.1.1.1.Y 1.1.o.U 1.1.1.U <.=.[ j.9 l 9.1.o.1.o...9.<.%.1.1.1.1.1.4.s.d.[ s.f.1.d.1   ",
"  , 1.U [ U U U P P [ U P P U U U U [ [ U U / <.e l F / ) U F U [ U F U U [ U [ P ) [ U [ [ V <.<   ",
"  6 o.F A U o.U [ U [ V U / [ U U U U U [ V U [ 9 e 9.V F V [ U U [ U ) U U P P U V U U [ U / 1.5   ",
"  6 %.U 1.<.<.=.<.<.o.o.o.1.o.o.1.1.1.9.$.1.$.9.n n o.o.1.1.9.1.o.o.1.9.1.1.o.1.9.1.1.1.1.%.[ 9.<   ",
"  ; n 9 i i i n i n r i 9 i 8 5 8 8 8 8 8 8 e 8 < 7 9 q 8 8 7 7 3 7 2 6 5 5 5 < 5 7 7 3 7 7 8 8 - O ",
"# 5 r e e 9 9 9 9 9 q 8 7 2 9 8 8 8 8 7 2 8 e 9 e r h i l 9 8 8 8 8 8 9 > , e 8 8 8 8 8 7 7 8 h 5 + ",
"O 9 1.F <.F =.<.<.=.U 9.n s 9.o.=.1.9.o.1.o./ 1.U <.=.=.o.1.9.1.1.%.<.u.6 6 d./ d.1.o.1.[ 9.U 9.9 O ",
"O 9 1.U A F S S <.U Q F e 8 <.F U A U [ U U U U / U / F F / U U F [ V %.7 8 1.[ H U o.U V Q P 1.8   ",
"O 8 <.V [ U [ / U [ / 1.9 7 =.U [ P F U V o.[ F U P P 1.P U P [ [ U F 1.7 8 o.f [ [ [ / ) P P 1.8 # ",
"  9 9.f.o.1.1.1.1.[ <.%.V 7 %.o.1.o.1.1.1.f.1.o.o...1.o.U 1./ 1.1.%.F u.8 h 9.1.o.1.1.1.f.s.1.u.q   ",
"+ 5 9 5 7 7 8 8 7 8 8 8 8 > 7 7 8 7 8 3 8 7 8 7 7 7 8 9 e 8 8 7 8 7 3 9 , 1 8 8 7 7 2 6 6 4 6 7 < $ ",
"O = 9 9 l 9 9 9 q 9 9 9 q 9 9 9 e i n l i i 9 r < 5 f n s s n s i 8 e 8 9 9 9 8 8 7 7 8 8 8 8 9 ; O ",
"O - 1.1.1.1.o.1.1.o.1.1.1.1.1.o.1.F 1.<.=.=.1.u.8 h 9.F [ [ <.<.<.9.<.<.1.1.1.o.1.%.1.1.1.j.1.u.<   ",
"O > =.V [ [ U U U U U U U U U U P [ U U o.V U 1.9 n F [ P [ [ U U U U P ) [ U / U U P [ U U P 1.7   ",
"  , o.F U U P F P P U U P U [ [ U F / F V F P U 8 c [ V P P [ Q U U Q [ U U U [ [ U [ F [ U V 1.7   ",
"  < %.U =.=.[ <.9.1.%.1.9.o.1...o.$.o.=.9.1.o.o.9 V 1.9.9.1.1.f.9.1.9.o.o.1.1.s.1.s.o.=.o.o.1.9.8   ",
"O , l 9 9 9 8 8 7 7 7 7 1 < , , > , 5 7 7 8 9 9 7 6 8 8 7 6 7 7 7 7 7 7 7 2 6 2 5 2 7 7 7 8 8 9 , O ",
"O 8 P n l n n 9 8 9 9 9 , * 9 8 9 8 7 8 8 8 9 i n l r 9 9 8 9 8 9 q 9 n < 5 9 9 9 9 9 9 9 i h Q 8   ",
"O 9 <.F U [ <.<.f.o.[ 9.9 , d.1.1.1.1.1.o.<.1.=.U / U 1.o.1.%.%.[ [ <.u.7 8 $.<.9.1.[ 1.o.1.U 9.9 O ",
"O 8 <.F U [ F U [ P P 9.7 , %.A U [ H P P F U U [ / [ U U [ / V [ / V 1., 8 <.F U [ / [ U [ V / 8 O ",
"O 8 1.Q [ F [ U U [ U %.9 3 o.U o.U 1.=.U F U =.[ U U U U U P P U F F o.: 9 o.U / U U <.F U U 1.8   ",
"O q 9.U 1./ <.[ <.<.U =.8 7 9.U U P Q V =.1.1.o.1.1.o.1.1.o.o./ 1.=.U n = 9 9.o.[ / F <.o.1.U 9.9 + ",
"X > 7 6 5 8 q 8 8 8 9 < - > 7 1 < 1 1 < , < 7 7 1 7 7 6 2 7 7 7 7 < 4 , ; 3 8 7 7 5 5 < < < 7 7 > X ",
"@ & l r s n f n c n s B P n h n n V [ U s s i P < 8 s 9 9 e i n n l F U 1.V c n n B V n n l z n ,   ",
". = / [ F U [ 1.[ 1.=.F F U o.[ 1.[ F / [ 1./ 9.l l 1.[ 1.[ <.U [ [ [ <.F U =.=.1.<.F [ U o./ %.<   ",
"  ; U [ [ F [ F F U F =.[ [ [ F U U U [ =.Q F U l l F U U / F 1.F F <.U 1.F F U F F [ U [ F U <.> O ",
"  , <.V / P U U U [ U U P F U [ F P U F A U P U l i / P U U U U [ V A U F [ [ U U F Y U V [ V 1.,   ",
"  < 9.9.%.$.1.o.o.9.<.%.o.%.1.<.1.1.9.%.o.1.o.1.l n 9.1.1.%.%.o.o.9.%.o...%.1.1.[ U o.o.1.o.o.u.<   ",
"+ - 7 1 < < < 5 7 5 7 1 5 < , > , < 6 4 4 , , < - < 7 5 5 5 < < < < < < < < 1 , = = - > , < 5 7 - + ",
"@ +                                                 O                           .     O         X @ "
};
