/* XPM */
static char *_6c0ee67676e48bca0755447bc55a8c8jJmhbanbk7Q6qkIB[] = {
/* columns rows colors chars-per-pixel */
"5 5 17 1 ",
"  c #776D63",
". c #786E64",
"X c #797166",
"o c #7E746A",
"O c #7F756B",
"+ c #7E766B",
"@ c #80766C",
"# c #82786E",
"$ c #837B70",
"% c #847A70",
"& c #857B71",
"* c #857D72",
"= c #867C72",
"- c #877D73",
"; c #877F74",
": c #887E74",
"> c #897F75",
/* pixels */
"@%=%$",
"O##OO",
">>===",
" . .X",
"OoO%;"
};
