/* XPM */
static char *_451de93280a4523dd49973d7f5b7d58VnhD6rrK1lBlhAvu[] = {
/* columns rows colors chars-per-pixel */
"50 50 85 1 ",
"  c #0B0200",
". c #130900",
"X c #1C1206",
"o c #1E140A",
"O c #20160A",
"+ c #281E14",
"@ c #2A2016",
"# c #2F241A",
"$ c #32251C",
"% c #33291F",
"& c #362D22",
"* c #392E24",
"= c #3A3026",
"- c #3D342A",
"; c #40362C",
": c #43392F",
"> c #463C32",
", c #493E34",
"< c #4A4037",
"1 c #4E4339",
"2 c #51463D",
"3 c #52493E",
"4 c #564B42",
"5 c #594E45",
"6 c #5B5147",
"7 c #5D5349",
"8 c #60564C",
"9 c #63594F",
"0 c #655C52",
"q c #695E55",
"w c #6B6056",
"e c #6D6359",
"r c #71665D",
"t c #72685E",
"y c #756B61",
"u c #796E64",
"i c #7B7167",
"p c #7E746A",
"a c #81766D",
"s c #82786E",
"d c #857B71",
"f c #897E74",
"g c #8B8177",
"h c #8D837A",
"j c #908277",
"k c #92867D",
"l c #93887F",
"z c #968C82",
"x c #998E84",
"c c #9B9186",
"v c #9D948A",
"b c #A1968C",
"n c #A2998E",
"m c #A69C92",
"M c #A99E94",
"N c #ABA196",
"B c #AEA49A",
"V c #B1A69D",
"C c #B3A99E",
"Z c #B8AA9F",
"A c #B6ACA2",
"S c #B9AEA4",
"D c #BBB1A6",
"F c #BDB3A9",
"G c #C0B2A7",
"H c #C1B6AB",
"J c #C3B9AE",
"K c #C8BAAF",
"L c #C6BBB1",
"P c #CABEB4",
"I c #CCC1B6",
"U c #CEC3BA",
"Y c #D0C2B7",
"T c #D2C5BB",
"R c #D4C9BE",
"E c #D8CABF",
"W c #D6CCC2",
"Q c #DACDC3",
"! c #DDD1C6",
"~ c #DED3C9",
"^ c #E1D6CB",
"/ c #E3D8CE",
"( c #E6DCD2",
") c #EADED4",
"_ c #F1E7DE",
/* pixels */
"AJSzSFLFFFAFSAAFFFBc~PLLJLLIFFFFpWWULLLLLLFLLLUAFF",
"NFNfAVNVCmCCBFFNBAz<mSLASFASFSVFy^UFFAANAVAAVAVAAS",
"ASzpFLSDADFBmzgzpzw4*qafdzgkMnnxq~LSFVFFFAFFAFVFAS",
"nh7>ufgxti94=4gSDCFIAAHAMVvkzpu-8LUWLBVAAAAVNABVNV",
"wtppzzcczzxz8eWIW~WDWWWWWWUWULFr:pbMzhgghsdhhsdypp",
"FDIPDDPFFBFSz8CWSILWUIFFFFFLFLDw<0yy0ppupsdy-=dNFF",
"CCAAASDCSABCBtuSLMFFFBLDFFDAmmh8bFSSAFSMFAFFsbLFFS",
"NDSAAAASBDNSBCyzFFNmzzvnxxppuy4<mLVFFVSSAAAm5mFCAA",
"CFDAACVCCAACVbt=3ilmnNIFFFBCLASrmHVSSSAAVVAMtvSASF",
"NCCVAAVACNvzpzzz,Y/Y!IIUPFIFLIIpdnMBmvAFAACAdcLCCC",
"VACAFBvzddhxvBSFgKGZIGDFLFLPFFDl:0e02*ulbmnm8gABCC",
"VAAmzppzVCCASFFBlVJHIDLLFLFFSCAmpFUTAslzggw% mUALF",
"ppidnVCAVDACCFAnlEIDDDADCIDADJICiRRTWWWWWFLMeMUUBB",
"dvNCACADCADZDGmytEJIFJFAFFDDCvlg2HWPFUULULWWNqp8yy",
"CFFAADDADDZZDDce0lIRAnlgs<svlpui5bUPFUUUWFFLv>kBCC",
"VDABBVBmlbblfiq4t1p6pnNBv1CTFJFDvdmSFAAANFVvy0lbmM",
"0aar348hjjlllbNAKKEGFERTRnpRABADM5pMMVmgdxkyygp4uy",
"MMbCa:HEEEEE!ERRRKRRUUIIRJwNMmllh0ylhhy0-eBFSFBnVV",
"ASJSma!KYYYIKYTITYIPIUIIJF6wu6lcVVBASFASphLCVFFCSS",
"ABZVbmIEYYRYYIFAZDZCAFJFINg3vAJAAHAFFAVSgyCCAVVCAA",
"vFVAglRKEGDILSADZAAFFCACCAfyFFNFVVAVSVSZfdPFAVCAVV",
"AFNNt#aTIYIZBBAFADFDDFFDnsweAFAFFAFFSSSBgymBSSAAAA",
"fppscr7eglclznAADCNhdgut&Oi<eBMmmMbbhxaa7  -eypmxv",
"euBW/^YSct<:<47t8<68et9tfdsllclgey2<=aybBmbmmvseaa",
"pvUFUFIIURAFBnVh=ALFJACDFFFUFFJDMGMm0HETTQEQEEKKLP",
"de(FFIAIFIIFDIUN9UFmFBCFDADMDBFBHVKHqMEYEPPPKTTTUP",
"m7IIHDJDFFJFFFSp=FJAFJFNCACFBDCFZVBVaSYEPKTPYKHSGS",
"vw/LmHDBADAVACSn<JFFmBCDDNCNCNNCZVBZwKQYEGGZZBSHAA",
"p7nIFIJIFUABFVNh CUCCABBBCJFFDDDGKVv:lASGZZZHSAxvb",
"#OXynlAAFBd60yzdpezJUFUDDzpnhghvlka9162>4affhya0$;",
"lllw0e33#&zNALWWWNssAAggyyzneO3tkabGPUSaja@1dkvfzv",
"DJHnDDVNB0I~IWUIUUUn4dvANAAFgdLRTERPTRHHEb;aUSHSAH",
"NDADADCDNwnLIJADLAWBgUAAFAAzhIUULUIIWUUUD4pBFBCSSA",
"CDNCCDDACpC_LBLFJANdelspdhr0ULWLACSLLFFFh*xFCDABVA",
"MAADCBBBFhyldwddtdypgvnnmg-iLWLFASSCBFDv1cFBBNNSVV",
"BANCBNDCAf<plvBMBFAFFAFAFFi&BUFAFFFABFme-BFCASFBAA",
"kNCDANDCAhhLJCFAAAAABBCCBnn<JFBJWBvzi0<@&<0060pdkh",
"sgw800glnpfDFBVABNAABAABBAnp0g0366qidzNBzg44gzzvhh",
"FCuynlNl0ryit0tywsggsgtttt3;<dlnnSPJFLLAAFppSSIAFH",
"BFllJCJFFAABNmlXtBBANNcmBnne3A~AFFDAAAAAFAhrFSNAAV",
"CADfAAANNAAAAFC7CAFFAAJAAADv+nUBZZSSZZGGAAyymBAAAS",
"vlvpcNnIDLAADDNenCCAFFABDDNz=vLCSGBVGNMNNdeeyewyxM",
"usse0i6wifllgll3lAAABBBFCCBCs8FFBMGKGSSGxtmFUUBNa5",
"F/UULLmhmBnmBh0&nJAAAABBAAACn&mJZHZVVSGbyiFWAIFUUi",
"cBNFFAcsFFCnmDf.lmNAAAFAANCCv08egGmvu,6$#>yueiphkq",
"etp80y00tpghlptutt86eyiyrdys0#0ye$yKKHHVMvpihzzzlk",
"ADDiyBBFAmAFFADAAnyeFWLFCdnhzgysa$v^LRT)^^QW~WFWUL",
"DLLBnFFAAFFAAFDAALvdWLFUJUJULULm,xQ)RHHJGPUFFFFFHL",
"CFAhmCCCCCBABCCCBAzgLFDFFFFFDFJFqx)YGGKGFSFFFFGGSS",
"LWUmLUUUWUUUUUUWUWAA(WWWWWWWWWWWbZ_QEQQWQQQQWQWWWT"
};
