/* XPM */
static char *_05930083c85408e9016ca0d6be052c1uamXDaRZNBayAXss[] = {
/* columns rows colors chars-per-pixel */
"50 50 93 2 ",
"   c #070000",
".  c #0B0200",
"X  c #100700",
"o  c #130A01",
"O  c #190E08",
"+  c #191007",
"@  c #1C130A",
"#  c #22160D",
"$  c #261C13",
"%  c #281E15",
"&  c #2A1F19",
"*  c #2B2115",
"=  c #2D241B",
"-  c #30271D",
";  c #32281F",
":  c #342B22",
">  c #392F25",
",  c #3A3126",
"<  c #3D332B",
"1  c #3F3830",
"2  c #41372D",
"3  c #43382F",
"4  c #453B32",
"5  c #493E35",
"6  c #483F38",
"7  c #4B4037",
"8  c #464239",
"9  c #4D433A",
"0  c #50463D",
"q  c #52483F",
"w  c #504740",
"e  c #554B42",
"r  c #594E44",
"t  c #594F48",
"y  c #5B5047",
"u  c #57524E",
"i  c #5D544A",
"p  c #5F5651",
"a  c #61564C",
"s  c #63594F",
"d  c #655B52",
"f  c #695E54",
"g  c #675C58",
"h  c #695E58",
"j  c #666054",
"k  c #6B6157",
"l  c #676058",
"z  c #6D635A",
"x  c #71665C",
"c  c #73695E",
"v  c #796D5F",
"b  c #6F6460",
"n  c #716660",
"m  c #756B62",
"M  c #7A6F65",
"N  c #736B68",
"B  c #7A6F69",
"V  c #7B7166",
"C  c #7D746A",
"Z  c #81766C",
"A  c #83796E",
"S  c #827771",
"D  c #857B72",
"F  c #897E74",
"G  c #8C7E79",
"H  c #878076",
"J  c #8B8176",
"K  c #8D8379",
"L  c #91867C",
"P  c #94897E",
"I  c #988B7F",
"U  c #918680",
"Y  c #958B81",
"T  c #9A8E83",
"R  c #9D9186",
"E  c #9D9389",
"W  c #A09286",
"Q  c #A2958B",
"!  c #A4998E",
"~  c #A89A8F",
"^  c #A29791",
"/  c #A59B92",
"(  c #AA9D93",
")  c #A69F99",
"_  c #A99E98",
"`  c #ABA096",
"'  c #ADA39A",
"]  c #B1A69C",
"[  c #B4A99E",
"{  c #B4ABA2",
"}  c #BAAEA4",
"|  c #BDB1A4",
" . c #CEC1B8",
/* pixels */
"L D A 7 D L D K K K A A Z Z A A F A f v ] H K Y R P P P L F K D ; ( ~ P I I J I I L T J Y L R K A / ",
"A F A l P F D K Z D F F F I F L F F z r K R Y K H I P J J J K C a | W L P F J A J A L J J J H L C ' ",
"K J s f L A J D J J A A F x v f d r 2 . o 0 i z k Z v v D V D z s ] L Y P A P J L A D D H K D K C ] ",
"V l : 5 z c V c y a a 4 % - f B B A L Z m K M V s d a q s 7 5 @ e E ! / P Z L D K Y P K A A K J m ] ",
"7 4 > 3 q i i d 0 a a 4 . e P _ ` / / ` E ` ! E ] ~ E Q E K C = ; b H H x k z l d d i z c s z 9 , H ",
"C D Y L K T L Y F L A F d w ! ! R E Y / Y E ` E T T E E T / D >   : 7 3 > 7 4 7 9 q 4 < X o y V b ' ",
"L J Y K J K J H F G F G m # k P D K L R K H L J L P K K C D i 1 n H C C C D C C A D J D < d L E Y { ",
"K A J K J A K D F Z F A M Z 3 D Q K A V m V C A V v d i 7 4 O : C R D L L H K D J J J A ; L L D C ` ",
"D H J J J J D D Z F F F F B < ; 5 y k f v v F L J Z v A D J v > D K D J K H C K F Z D z 2 A F G C ' ",
"K J D D D D D J J Z V k r s y 5 # T ] ~ ~ ` ` W W W P P I I I q M D A A A A L H F Z D Y 5 Z T F C [ ",
"A A D K K D M c s q a f f C P Z a W I G R L J L P P T R T P I q o ; 5 4 ; - z v v J F n 2 h G Z m ` ",
"K L K A d e r f Z Z Z F Y D L Z Z G T L R T I R R L Y L K P A x q G T G d < i s r q > . . D Y L K ] ",
"j y e i z V A D A J F A L A F v Z I I I L L L L H Y F D F P G A s ( Q _ ` E ` Q I I A c % Y Q T C { ",
"e d m A A A D K J J L A Z L Z 2 f ~ A I J D F K K ^ Y T P D D d 4 ~ ~ W R Q E W ~ W W ! x 0 f a = C ",
"A K K K J K J D A Z F A L I x ; 3 T [ ( U K C z z 7 z z t 4 9 ; $ Z ! ! E R R W I ( Q J z X e x j ` ",
"K L K D D K J D Z Z Z Z k f > > = X a q f h h N r   F T Y K F K y c D A L J L L L J Z C 9 3 M D C / ",
"9 d z 4 , e e e r r a a i i f Z F W Y x K ` W ( T s Z T A G F K C : l D J J J d h m h w > 7 3 3 * C ",
"x f V v < . V / Q W W ~ ~ ~ ~ ( ( W ~ ~ Q ! T W ( Z r G A Z M M 7 $ 5 s s r 4 * * w N C A L V j z ) ",
"Y L D D C s ' T T ~ ~ W W ~ ~ I Q Y W ~ Q ! / E W G # s q < q k D C V J J J C Z > z E G A L L F A ' ",
"V K J D k A ~ Q W ~ Q W T W T L G W G G L L Y R W D 3 & f V J J K L D K J D D K 6 i F F L A A L V ' ",
"K C A J 5 A Q E ~ T I W T L F F D G C D K C D L D H w p R K K D D D J J J F L F i x L A A A D D v ` ",
"D D A A 5 3 A ( U T W U D D F F G G T E K Y K D C g : w K F K L L D K J D D K D 7 h K G L K J D Z ` ",
"m x q i 6 . O e S G S n b D K Y K D F n z M l u #   p $ z F S C D C D C m V h l < o O 6 d g f F x ` ",
"= r m ! { ( U m 6 @ X o = < 9 t q 3 % X $ = o : 8 1 1 w e g b t 3 2 - * % 7 , i z p e p t r 4 5 * A ",
"0 C ~ I W ( ~ W ~ T Z x k a z 8 . M A K J J V A Y K P I P K K A C N x k , T T ! ~ ` R ~ ~ ~ L C Z [ ",
"4 x [ I J J I I K P W I Y E / z e ` P J J J J P D K J J H K J H K K L C 7 T ~ ( I ~ ! W W ~ ~ ` I | ",
"N < ` E I W L I R L T K L R J < > E J A J J H Z K K H Z A A H J A D L Z 3 L Q T Q ! ~ Q ! Y P R L ` ",
"z d ! H J J P J K J K J D D J f : E L J J Z H J C H A H L J Z A A D C A 7 ` ] ~ _ I P F L J H P D ) ",
"u 4 ! Q A I I J H L K H P Z Z s . L E C V A L C D D D D J J J H J P A v = V P E P L P D P H H H j ) ",
".   * x Z Z ( W E K j 5 q a a 7 o z K R R J I K D m N D V c V P D v d ;   @ , , q f z z c j u 0 o C ",
"p z 9 + < : # 2 @ * s s c I E E / i < m / L c x a 4 e d :   X * 9 4 p M P P b < 7 > o : e w u q * Y ",
"U H K z J V V c d 7 ! ' W ] ! ! E E Y i 3 0 k m x C Y F r y J ! E R E ` ` E Y H ` y . y Y P K H A { ",
"D K K J K J J K V 3 K E ( F G T ! K ! V i L R L Y H L j t Q ( W ~ Q W W Q Q Q ( L = e H K D K K V ' ",
"H J D A D J J K A 3 R ~ L K Y Y K K D s z C i i j x e q T ^ Q ( D P W W R E T K r   j R B K K A M ` ",
"V D K D H D A J A e c Y c q C l j s 9 > 5 i i z c q . p ' E ! D K D S S C K K C O z Y C Z H V H C ` ",
"K D A C D D V C L 9 o < r e B z c V J L K J L L K M 8 * D ` K L G K L G D T V < ; H C D J J K J C ` ",
"V D D J J D J I C r l H L T D D D I D D H V C K K m e : E K P Y _ K C c a e :     7 z i 7 k x j i R ",
"e d q i i q k c C 8 m ^ K F K K J J A J K K J Z C K m 1 j m 1 u 9 : ; 4 7 e s z w <   X 7 7 7 l 1 H ",
"D m = < y r c u 8 : 1 b w 1 d p y y k l s k s r e w 1 :   , e u f D Y J K ! R A U D 4 u Y K R J m [ ",
"J K y V Y D E A C C D b n b 4   3 V A z v l e c x p u X 8 E ^ H Y L J J K D D J U C i w K L C J C ' ",
"K H H r P A H C K H K J K Y m * J I K K L L J K L J J i . K K U F F J A L A I F K D 7 i H J J L V ' ",
"C C v r H H K P K D J J H K m 7 Z K H A H J H J D Y C y   A E B G L J J A A A Z D i = = 3 q y s c E ",
"7 7 1 - 3 3 9 v c V V z m C l - k C P L D D D K A C F N ; i U G A A Z J I Z G G l 5 b U P V s x = C ",
"T ! I K P P q 8 d s x c j 0 - X H H H C C J A C K K A F h @ K U F F L A L ~ A Z 7 i / / E E ! ! x L ",
"P T R Y P I x C Y I K C H H e   M C H K K L K K K Z J V m @ e g v T G c * 7 5 * . < d y p s x c l J ",
"< < 0 e i i - = i i s l j 0 < ; 9 r 9 e i r q q r l y d y X < < 2 2 0 J I Z x r q 9 , < q 8 0 i , J ",
"v H H - > x V V x C C C C H D C x i * 7 D L L K d e a y 5 < 4 r u . A [ ~ ~ | | ] { R T ! ! R P P [ ",
"Y L R j C P K K J K K K U K H K K L y M ` E E E E D ! Y Y T J a   N ( ( I L J W W W R ~ Y I I E J } ",
"P E P s L H H J J J H J J J J J J K d Z ! P I I I T P I P I W P : D  ./ W T I P P P I P P P P I G ] ",
"H K C q H H H K J J J A D J J J J K d A ! P I P I I P I P I I J - C } L P P P P P I P I I P I I D ( "
};
