/* XPM */
static char *_144f596495f45f3ccf89488d6fa9a44txzF6IbuACr49tD2[] = {
/* columns rows colors chars-per-pixel */
"50 50 138 2 ",
"   c #090100",
".  c #160C03",
"X  c #1D130A",
"o  c #251B12",
"O  c #291F16",
"+  c #2A2017",
"@  c #2D241B",
"#  c #31271E",
"$  c #32281F",
"%  c #342A22",
"&  c #392F26",
"*  c #3A3027",
"=  c #3C332B",
"-  c #3F382E",
";  c #41372E",
":  c #42382F",
">  c #403730",
",  c #453C33",
"<  c #483E35",
"1  c #483F38",
"2  c #4D433B",
"3  c #50473E",
"4  c #52483F",
"5  c #554B42",
"6  c #594F46",
"7  c #5A5047",
"8  c #5D534A",
"9  c #60574E",
"0  c #62584F",
"q  c #655B52",
"w  c #695F56",
"e  c #695E58",
"r  c #6A6057",
"t  c #6D635A",
"y  c #70675E",
"u  c #72685F",
"i  c #716660",
"p  c #756B62",
"a  c #796F66",
"s  c #7A6F69",
"d  c #777066",
"f  c #7A7067",
"g  c #7D736A",
"h  c #81776E",
"j  c #82786F",
"k  c #827771",
"l  c #857B72",
"z  c #887E76",
"x  c #8A8077",
"c  c #8D837A",
"v  c #8F887E",
"b  c #91877E",
"n  c #92887F",
"m  c #8F8882",
"M  c #958B82",
"N  c #998E86",
"B  c #938E88",
"V  c #979086",
"C  c #9A9087",
"Z  c #96918B",
"A  c #9D938A",
"S  c #9F988E",
"D  c #A1968D",
"F  c #A2988F",
"G  c #A19690",
"H  c #A59B92",
"J  c #A99E95",
"K  c #AAA097",
"L  c #ABA198",
"P  c #ADA098",
"I  c #AEA199",
"U  c #ACA299",
"Y  c #ADA399",
"T  c #ACA298",
"R  c #ACA39A",
"E  c #ADA39A",
"W  c #AFA29A",
"Q  c #ACA59B",
"!  c #AEA49B",
"~  c #AFA59C",
"^  c #ADA39A",
"/  c #B0A39A",
"(  c #B0A39B",
")  c #B1A49B",
"_  c #B1A49C",
"`  c #B2A59C",
"'  c #B2A59D",
"]  c #B0A69D",
"[  c #B1A79D",
"{  c #B1A79E",
"}  c #B3A69E",
"|  c #B4A79E",
" . c #B4A79F",
".. c #B2A59C",
"X. c #B1A89F",
"o. c #B2A89F",
"O. c #B3A99F",
"+. c #B5A89F",
"@. c #B4A89F",
"#. c #AFA8A2",
"$. c #B3A9A0",
"%. c #B1AAA0",
"&. c #B2ABA1",
"*. c #B5A8A0",
"=. c #B4AAA1",
"-. c #B7AAA1",
";. c #B5ABA2",
":. c #B7AAA2",
">. c #B3ACA2",
",. c #B4ADA3",
"<. c #B6ACA3",
"1. c #B7ADA4",
"2. c #B5AEA4",
"3. c #B6AFA5",
"4. c #B5ABA2",
"5. c #B8ABA3",
"6. c #BBAEA5",
"7. c #B9AFA6",
"8. c #BCAFA7",
"9. c #B9ADA4",
"0. c #B7B0A6",
"q. c #BAB0A6",
"w. c #BAB0A7",
"e. c #B9B1A7",
"r. c #BBB1A8",
"t. c #B9B2A8",
"y. c #BCB2A9",
"u. c #BDB3AA",
"i. c #BBB4AA",
"p. c #BEB4AB",
"a. c #BBB2A9",
"s. c #C1B7AE",
"d. c #C1B7AE",
"f. c #C1BAB0",
"g. c #C5BBB2",
"h. c #C5BCB3",
"j. c #C9BFB6",
"k. c #D6CCC2",
/* pixels */
"N H n t M N D A C C D N M N n A N N z f s.J C H J D F Y A F V C 4 ` 5.D K H F J D H T D D H H D M ;.",
"b A M g F D A C N D c M A D D M D F z 0 A Y Y H A J F F A F A V y g.+.D H A C M A A M D D H A D n 0.",
"A A x p A A A N F F D A D j c z u f 4 X & 9 a a g n x x m M M z e d.F H H A F A C A M C N D N D M t.",
"n g 0 5 g z z x u w y 8 , 2 u c b D D n b N M c h g y y a e r - 9 | ` | F C C D D H D D A D C C z 0.",
"0 8 3 3 t y y p y a t p & w H -.r.-.] -.o.&.&.*.q.o.Y Y J C M 2 < c A A z z h z j f j h g a g f r V ",
"b A D A J H F Y N A C H f 7 Y | T H Y o.! ~ ] Y J Y ] ] R X.S 5 + < 7 9 6 q 4 0 q 8 0 8 : : w g x X.",
"N D H D A N N F F N A N n 3 h F D F K H A A H F A H D A B m f 6 z N N N N C N n A A A M 6 f H 9.A p.",
"C A C C A D N A N N N M n N 0 b Y A N c M b M c c c d p t 7 * 5 N F A D D N F A N F M M 4 N K b m 0.",
"M A A C A D N N C N N A C n y : q t j f x j A N D c c c F M c 5 n D C D C A N A n C C z 5 n D A C 0.",
"M D D A N M M A A M b z a u y 0 % D ;.3.-.o.;.+.o.! H H K F ] r b N N C M n F A H n C A w l o.M n 0.",
"M M M N A C b c f u p g j b N D r r.K A F ! F F A H K o.K F H t ; < 8 8 6 3 k z b M N b 0 j D A v X.",
"N D D N z p y a n b n N A F D M l D R H K K H K K F H H A F C c i A F A k 4 y u u y 6 % o N N A V 0.",
"j f r t g z M D M C D C C F C c c H K K H D H D D H D C A F A C e d.) +.9.J ] 5.H A D j > F 9.;.V t.",
"0 f b C A N N C D D D N N D c y t -.C F C D H A D ] H H H M C g 8 d.-.P Y 5.| / q.-.! ! j t g t 8 x ",
"N D C N A F D C C N N C F F z 9 7 A y.q.F M c j h 8 f g r 8 0 2 : z W W _ ] / J F o.H H g , r z g Q ",
"N J H C N A N N b b n n z a q 2 3 + t e y h f z a o M o.D H C F u k N C D M H J F A C M q 9 c V V 0.",
"w u l q 5 e e i t t y p p p h c C H H n N ` 8.| | a l J N D N D N 3 f A D A C g k x j r 2 e 2 8 6 m ",
"j j j v 7   z J _ *.*.) ) +.+.| +.-.+.` _ *.` J d.b q H n D z b y , 9 u f t 9 3 , q x n S S v f l X.",
"D H N A F r h.-.' *.` ` +.6.+.P ) I I | 5.*.( ( Y C 3 p y 3 e l n b M N H C n b 3 x K M H V H C V i.",
"b F H M z l Y Y *.I P ) ` P J J J D D F H G G J Y C w ; a M N D D H A N D N A F r r M K V M H C n y.",
"n C n D p l y.] *.) ) ) H C C D N C C C C C A A M N y y H H A A A A C F D D D F d g S M V C V C c -.",
"M D A N r 3 c ] H ) P D V C D C D F H H H J G A F f 6 8 H N D D C M C H C A M B q d Q v ~ S V A M 8.",
"c f p p w @ % a N N b z x B S S D A M c z z k s ; $ h , a F b M S V M n z b g l 7   = q i t M m z 2.",
"2 r l J 8.5.G l 8 1 * ; 2 5 q p t 6 < > , 1 1 1 9 9 5 e w a j y 8 8 3 ; < 0 5 i d p r p a r q 8 6 m ",
"p a 5.J H / 6./ -.K c k g p x q . z C D M F M M D F H T H D F N b c c j 2 D J -.6.6.` +.| 6.D M m s.",
"w q j.Y F H J F K H ! R K K ;.l w / D F F F N H D D C n N D F M D A A N 0 / Y ! J | ` | P ` 6.6.Y j.",
"b 3 / J J H F J H A ! T F A F y ; J F D N N M A N C D N D F C D A A A N 6 H ~ 3.` ` ` | ` F / H A $.",
"l 9 -.H N D H F H N C A A M A k , H C D F D D N n N D N N M c M b M N A w -.3.J d.F D N D N G D A 3.",
"p 8 A 2.H D D N A J A A K C M a O N ] D b b C C N C D N N F F H H H M h , M _ J F A J N D G A N g 8.",
"% . % f m M H 9.K H l 0 q t a w = g N F J F F D D c l N M h c M c z g 6 o < 6 5 e h z h l l y q @ l ",
"y p e 5 2 , 5 5 , = y p z H K J 5.u 6 j T F z j y 9 9 a 4 O : 3 q 9 s b N D k 5 9 7 % < e t t e 5 Z ",
"Z K A k A M v g k 6 ! y.! y.! 9.] Y T a 9 r h z h N D F y q H H ] G Y $.9._ J G ( h o t #.Z S G B p.",
"n A S F C H C F M 4 N +.5.F A J I D +.C r T H D F D F h e W 6.| *.` _ *.-.Y Y -.H 3 q N F M A D v &.",
"A C M V M D C D F q C -.F D 5.F H T C f u b u h z h y 0 | H 5./ N H Y H H ! ] H e = z D C J N N v 0.",
"n M A F N C A A M a h D z y h h u u w 8 9 u a h j y . y y.| Y A G M N D A C M c 2 g D N b M b D v 0.",
"A C n N M C C c H y $ 5 y y j l z c N H F D H C F M 9 : c 9.H A H A A C A H v q , N N N D H C N v 0.",
"x M C D A N F F M a a H M D H N D D N n C b n N M A p - X.A S K _ H A c d i 3 . % 8 j g 9 a g c d Q ",
"q p y t y w j l M i d J H D N D D D C H D F D n v S v 5 g x r r e 5 2 2 5 r g g w 6 $ & 5 w y r r v ",
"A c 6 2 y u j a 8 5 8 a a r t g y u f h r f f a y t 8 2 * , r t i v H H K &.R B A H 7 t Y A J J v t.",
"C F j g H D H F M B M v p g t . 2 z b c z x w j l d r - 7 X.K S H H A C V M M A A M y t D N N C v 0.",
"C n J u C C n N C F C F H F c 2 V F C D H F D F D D K u ; C J D D D A c Y N N D M A r p A V A S B X.",
"n b c e b F D F C F C A A F M 8 N F C D C C N N D H b h o n H n b A H A c H M N A a 2 , 8 t p f x #.",
"9 r 9 6 4 9 9 h l c k x c M x 2 u n D K C C D D n n n n 4 r J J H M b D D N D b l 8 k H H v p g 5 x ",
"D -.H D N D p 6 t l l j d t 7 + n D N C b C N b F n H n h : n H N N D D J H D N 0 i X.0.K &.! &.x V ",
"b F H ] ] T n z ] H N C F A y @ z D A F A F F F n H A n x < y u z / b c 5 8 q 1 # 5 a a p g l c x B ",
"9 9 r r y r 4 < r d f a y t 8 2 7 y w q u y y r u j u h u ; 2 7 5 6 t D J c p a w w 5 7 r 8 q f 8 n ",
"h D C 8 < j n n z c n n n N n C c f 4 3 n D F V h t y r t 2 w u a   z 9.J d.y.j.y.g._ H ] -.! H H g.",
"H F F c l T C D C D D D F D N D F D j d +.] Y Y K A / / H T D u % g ;.s.] D H _ J J / Y J H J Y D d.",
"D I H d D A C D C D C D C C D C C D j l / H F H K H H H H K T H 8 m k.` T K H K H J H H J J H J D q.",
"M F C r V C N D D C C C C D C D C D j l ] H F H T H H K H K J F 5 z g.H F H F H J J J J J H J J n O."
};
