/* XPM */
static char *b95ded6a60ab4315f061690c51c70de57MHtCW9FK51XeBbc[] = {
/* columns rows colors chars-per-pixel */
"50 50 165 2 ",
"   c #060000",
".  c #0B0200",
"X  c #120500",
"o  c #130A03",
"O  c #190D03",
"+  c #150E09",
"@  c #190F08",
"#  c #1B1106",
"$  c #1C130B",
"%  c #1E1611",
"&  c #1F1810",
"*  c #23160B",
"=  c #22180E",
"-  c #2A1A0D",
";  c #201710",
":  c #241B13",
">  c #2B1E14",
",  c #261E19",
"<  c #2C2116",
"1  c #2C221A",
"2  c #332316",
"3  c #32261B",
"4  c #35291D",
"5  c #3A2A1D",
"6  c #322721",
"7  c #342B22",
"8  c #3A2E23",
"9  c #332D2A",
"0  c #392E28",
"q  c #3C3126",
"w  c #373029",
"e  c #3D332A",
"r  c #3E3731",
"t  c #423327",
"y  c #42352C",
"u  c #45392E",
"i  c #493B2E",
"p  c #413731",
"a  c #453B33",
"s  c #4A3D33",
"d  c #443C39",
"f  c #493E39",
"g  c #4C4136",
"h  c #4D433B",
"j  c #504235",
"k  c #564B35",
"l  c #52453B",
"z  c #55493D",
"x  c #5A4C3D",
"c  c #5D513E",
"v  c #504541",
"b  c #554B43",
"n  c #5A4D43",
"m  c #594E48",
"M  c #5D5145",
"N  c #56514B",
"B  c #5D534A",
"V  c #625446",
"C  c #62554B",
"Z  c #695749",
"A  c #65594D",
"S  c #6A5B4E",
"D  c #705F4F",
"F  c #615650",
"G  c #665B52",
"H  c #6B5D52",
"J  c #665F59",
"K  c #715E51",
"L  c #6E6155",
"P  c #6D635A",
"I  c #726355",
"U  c #7A6657",
"Y  c #73655A",
"T  c #796658",
"R  c #76695C",
"E  c #7A6B5D",
"W  c #716660",
"Q  c #766B61",
"!  c #7B6D62",
"~  c #766D69",
"^  c #7D7165",
"/  c #7D7269",
"(  c #7C7373",
")  c #846F5C",
"_  c #806E61",
"`  c #837365",
"'  c #8B7567",
"]  c #83766A",
"[  c #89776A",
"{  c #85796D",
"}  c #8B7A6D",
"|  c #907E6E",
" . c #857B73",
".. c #8B7D72",
"X. c #807778",
"o. c #8A7F79",
"O. c #907E71",
"+. c #94826E",
"@. c #8D8175",
"#. c #8E8075",
"$. c #8D8075",
"%. c #8B8178",
"&. c #8D8379",
"*. c #8D837A",
"=. c #8E847B",
"-. c #8F857C",
";. c #8C837B",
":. c #908277",
">. c #968075",
",. c #958176",
"<. c #938274",
"1. c #998576",
"2. c #978378",
"3. c #918579",
"4. c #928479",
"5. c #958578",
"6. c #92857C",
"7. c #93857A",
"8. c #9A867B",
"9. c #9B877C",
"0. c #998678",
"q. c #95897D",
"w. c #948A7D",
"e. c #98887B",
"r. c #9A8A7D",
"t. c #9E887D",
"y. c #9D897E",
"u. c #9A8A7C",
"i. c #8C8783",
"p. c #938980",
"a. c #948A81",
"s. c #958B82",
"d. c #968C83",
"f. c #978D84",
"g. c #968B83",
"h. c #9F8B80",
"j. c #9D8C82",
"k. c #9F8F82",
"l. c #9B8D82",
"z. c #958E88",
"x. c #9B9186",
"c. c #97908A",
"v. c #989189",
"b. c #9D948D",
"n. c #9D938A",
"m. c #9D9391",
"M. c #A18F81",
"N. c #A18F81",
"B. c #A09486",
"V. c #A2948B",
"C. c #A2948A",
"Z. c #A5998F",
"A. c #A19891",
"S. c #A49A91",
"D. c #A59B92",
"F. c #A59B92",
"G. c #AE9D93",
"H. c #AC9F96",
"J. c #A99C93",
"K. c #B19F94",
"L. c #ADA299",
"P. c #B2A69A",
"I. c #B6A699",
"U. c #B8A698",
"Y. c #C8B5A7",
/* pixels */
"..3.! A ....3.{ } @./ ] { / @.` @.{ L { P.] @.w.s.6.:.k.[ ....{ b S.S.i.g...-.;.$.-.p.o.r.;.d.@.] L.",
"C A n s Y G H A A A B A B L M S M P r 4 ^ ! P Y G R H I H L K n t K.` K K K Z D I H S S L V A L k d.",
"/ H z l Q H Y Y H R R B P B L l u g &   o q l g z H B S I H P v x N.T } [ I U D S K I E _ E T E M b.",
"C a > 1 n n M m g a r 0 @ . u B A D E R n Y I C b g 8 2 2 * 3   > h.j.! ! S T E ! R I Z S I L L l v.",
"* * o $ t y a y 4 4 w 9   e ^ C.r.u.1.>.} y.' 2.3...5.8...Q B   % p Q  .B a m h g a N b g a e e O ( ",
"H ! ! ^ ] ^ ] ] L ^ R L r q @.] } ` } <.| t.| | ..] [ [ ] ..P o . ; X . . 1 : ; 6 ; 1 &   o 7 N z b.",
"Y ! R T L Z K K L L L P M . l ^ _ I ` [ K E ` Y Q T E I G K d $ b F B ! G P H G P J L A & N Y @.^ F.",
"I Y S T T Y R R I B L L B M * S ` E S V M c V S Z M z t > =   % Z ..Y H ` L T I I R Y A o T R I c w.",
"I I I I L I D L S I I S Y B & . 0 p n s V C T ` / B A A I A B O H ! R S U S K I H G R h $ H L E V n.",
"D L D I I H S S Y S S j q e u 0 . ..j.N.8.h.8.} ....] E ^ { @.4 N P B H A I Q G Y G H Y : L ] S c Z.",
"L L L L I H V M u 4 q j k L R x a h.E _ ) E Y ] R ! _ } ` E L 8   % + > X O v B S H F m > b Y I g r.",
"Y R ^ L l q q i M A V I R L T L x ! _ ` _ } ] ^ ..! _ ` E E S V 6 P { ] n * s y 5 4 $ . . H Q Y Y L.",
"z u 4 8 s M H P H R L I D S I V I { _ _ E ` Q ! Y R T S Z R E Z f e.0.| 1.` N.O._ } Y l   Q w.@.S L.",
"2 y M L L L L L Y H H I L ^ C X V j.I E K T I ! E { { @.^ I ^ g - >.0.' | >.O.` O.>.{ ..M e b e o R ",
"S I T I I T Y I I K ! I L R z $ : o.J.j.! ! V l z 8 b x u 3 < O X Y } } ' ' O.O.2...{ K b   w b e v.",
"E ! R D D I I S V Z Z z M g + .     f f s z n A e . Q Q / / B R 0 n H I ! H Q ! I K K G 1 3 N L c v.",
"q r N 1 1 q 7 2 6 y y t s g z G ! _ ` Z E } y.<.[ q Y ! P Q Y Y N o g L ^ ! R g d N g < $ 3 < 1 . ( ",
"j g z m & X I 3.O.2.O.:.e.>.>.h.e.+.<.O.3.[ } +.u.A 3 Q F C V n e o < e g 8 :     7 z A I ^ B z g z.",
"T { Y R h l e...} O.O.[ | <.} _ | | | <.+.+.} +...Y . y 0 X u j L B M I P P A H & z / R I R P P H v.",
"S L I I g Y @.@.+.>.+.| O.| } [ U E E U T [ [ [ [ H : . s G H ! L ! I Q E I S Y < h R S I I Y L c w.",
"! M S S 5 L ....| ` ' } ^ H S I E I I L I S S S G H 7 d ] / H I D L I L I D R I r M R G L D L P k w.",
"L P Y S * 2 H w.] [ [ ^ L L Y P A L R Q ] ] ^ P G v o 7 / G Q T P L R L P L Y A 7 g P R Q I L Q B x.",
"b b 3 u 4 . . 9 P P L b z L ! L Q / P F b N g e   . r + l Q Z H P L L L B B g g o     < u b z F g v.",
"  w A r.Z.v.~ J 9 o       + 7 r w :   o   o . & 9 1 , 6 0 n s i < :       3 : j N d a z h e & 1   ( ",
"2 E >.` [ <.:.:.<.} H n h g M 4 . A R H Y _ M Y E T E ^ R E E D M H z f : ] ` 1.1.>.>.O.8.O.U H A L.",
"* x C.` ] ! ` E ! ! [ { ^ ^  .n w n.H Y E C Q P D L T E I D L D U I ^ G > ` u.1.' | <.} | >.2.y.{ Z.",
"M * B.^ ` } U [ @.T ^ ^ ^ ^ Y > &  .R L Y E Y H Y L L H L I R I I D I V - [ +.) +.<.O.| } [ [ } T n.",
"h h x.R Q Y T U I I E L L Y Q f : { T T I S K R A L L S D L H M S L A H 2 5.y.0.<.[ R I E I I R n x.",
"r 1  .{ I E _ D L ^ T L Q H H i . ^ ^ L M S K C H H Y R P Y Q ^ P P P B . B  .] R ] Y Y T P L A v b.",
".   X B G G C.....E g 3 t t u < . h P @._ ! Q ! Y n m H B z M H H H w     + . $ 7 l l h l h h 8   / ",
"g b 0 . # . . $ . . u l M E ] } { g . S [ H H z e > 8 a : . o o 5 * g P W ! F @ 7 ; . + 7 w a w   ;.",
"/ H P M G P m m a 7 s.l.} x.<.<.;. .] i X t l M m B ! Y q e Y  .} ' ..q.@.@.[ I g.d . y / ! Q R M L.",
"Y I L I Y E E R M 1 ! ..:.E E ' } ^ w.C s Q ! E R Y E s q +...1.O.8.| | 2.O.} t.~ . 8 H E I Z R M S.",
"A I R T H S S I P O ] C.^ R ] Y ^ ^ H t z H t t l n q 4 @.@.<.` E E ` ` { ..[ I 0 o f Y H I ! I k x.",
"L A H H K Y I I R y n R j 8 S M j l q $ 2 y s n k 4 O n w.^ <.U Z I Y I E K F G . v W R H G A L c f.",
"I H H S G G S G C 0 X 3 s u M j M S L R E R Q T Y C $ . L r.` S E I E Y G / J : + J W J P Q L P M C.",
"A H H Y Y H L L L 8 l Q Y Y P Q I ! L L Y A A L R B a + / / P @.} [ H l a 1 X .   1 g r < w h B 4 =.",
"8 g t s q 1 l m G < z { Q L P Q L L I Q Y L Y S M Q z $ N b < q t X X 1 8 f v f e &   o 4 g e g # ^ ",
"Y b X 3 z g V 8 # * 1 a e 1 e a u 8 u g g g g 3 e 1 , %   1 r g s Q ! H ! } ^ Y P L < 7 Q ^ R ^ x D.",
"Y Q y A Q H ;.Y L L R N m z 6   3 C I M M l t M b y e   1 / @.L _ ! ! E T K H T I Y w e R A E I M x.",
"Y I L q / N G L I D I I R ] x . Y R ! R Y T Y U U E P e   R ] I R H R R I L E S R L 7 t L P P P c n.",
"C A C 7 R L R Q I I R E I R N 1 H Y H I Y E E I U G P f   R ^ D L P L A L L S I M u O . $ 3 q b g v.",
"< < - o : < q B z M M l z J h . l H Y Y Y S I K K K Y b . u ^ L L R L T R I A L h $ l / Q P l z o ~ ",
"[ @.@.^ ^ ~ h 1 z g z c l e ;   H R Y G H H S S I A C Q f   ^ / S S L T T { W m 1 f o.6.O.3.! r.M i.",
"] ! { ] ! Q M A Q / ^ L H H e   M H R L Y E H E I Q H K b   g 7 L P R x X O * . X : f f 0 s V V e X.",
"O o < 5 u q . X g q q u g e : + 1 4 1 7 s y 3 7 8 s f 0 < o < & & < q D [ E x l 0 4 X X 2 3 - t . ~ ",
"n H H o ; N J G h L E I A A P P N a X 4 R ] ] R n 0 f s e 1 < e 9 o C L.1.>.I.h.9.j.5.....3.O.} ! L.",
"] ^ { i H ^ Q R R T I T E R Y P R Q a P j.] :.]  .Q { ^ / ( W g   N C.u.O.T E ..| ..+.} ] ] ^ [ K P.",
"E ] P g L G A D S S D S S D S D H D u S { ^ ! E E ^ E ^ E ^ ] R   Y Y.@.' Q ^ E R E Q E Q E Q ! Y b.",
"] } R M / @.{ { [ { { ] ] { ] { / @.M @.r.@.<.@.@.<.@.<.@.@.<.} d / I.[ @.-.3.<.:.:.3.:.:.:.:.5.! D."
};
