/* XPM */
static char *_0f184e9e2da4ff4919ed931516d3ff9maAVlyxiQvHLzJJ3[] = {
/* columns rows colors chars-per-pixel */
"50 50 45 1 ",
"  c #FB625D",
". c #FB635E",
"X c #FD625D",
"o c #FC635D",
"O c #FD625E",
"+ c #FC635E",
"@ c #FD645F",
"# c #EA6F68",
"$ c #E96F6A",
"% c #F76661",
"& c #F66761",
"* c #FC6260",
"= c #E7706A",
"- c #E2756E",
"; c #E3766F",
": c #E97068",
"> c #EB7069",
", c #E27570",
"< c #E47470",
"1 c #CF827A",
"2 c #C7887F",
"3 c #D0817A",
"4 c #BF8D84",
"5 c #BD8E86",
"6 c #AF978D",
"7 c #AD9A8C",
"8 c #AD998E",
"9 c #AF998E",
"0 c #B5948B",
"q c #B1968D",
"w c #A79D91",
"e c #A69E91",
"r c #A69C92",
"t c #A79D93",
"y c #A69E93",
"u c #A79D94",
"i c #AB9A90",
"p c #AC9A90",
"a c #A99C93",
"s c #A99C94",
"d c #AA9D94",
"f c #A89E94",
"g c #C58981",
"h c #C78881",
"j c #C08E85",
/* pixels */
"tttttttttttttttttttttttttttttttttttttttttttttttttt",
"tttttttttttttttttttttttttttttttttttttttttttttttttt",
"tttttttttttttttttttttttttttttttttttttttttttttttttt",
"tttttttttttttttttttttttttttttttttttttttttttttttttt",
"tttttttttttttttttttttttttttttttttttttttttttttttttt",
"tttttttttttttttttttttttttttttttttttttttttttttttttt",
"tttttttttttttttttttttttttttttttttttttttttttttttttt",
"tttttttttttttttttttttttttttttttttttttttttttttttttt",
"tttttttttttattttttttrfytttftttttttttttttfrfrfrfrtt",
"ttttttttttttttttttttfyyttttfttttttttttttrfrfrfrftt",
"ttttttttttttttttttttratttetftttttyttttttfrfrfrfrtt",
"ttttttttattaattttttttti05508ttttttttatttrfrfrfrftt",
"tttttttttttaatttttt63>o@*o*o:19tttttirarfrfrfrfrtt",
"tttttttttttttttttt2&oo*@oo*ooo&2ttttyttfrfrfrfrftt",
"tttttttttttttttt9<oo..ooo*.ooooo,8tayffrfrfrfrfrtt",
"tttttttttttttft4&*oo.@*oo@@@**ooo.4rufrfrfrfrfrftt",
"tttttttttttttt9%o@ooooo.ooo*@oo*o.&9ftyyyuurfrfrtt",
"tttttttttttttf,oo**o.@*@*ooo.o.@.@o,ttitsyrfrfrftt",
"ttttttttfttft2@o@*@.o*@*@oo.o.ooo*@*hyytfrfrfrfrtt",
"tttttttttttr6&*o.ooooo.o.o*@o@*ooo.o&0yfrfrfrfrftt",
"ttttttttttrt1o.*ooo*@.oo@*o.o.ooo*@o.1ttfrfrfrfrtt",
"tttttttttttt>*oo*ooooo.@.oo@*@*ooo.o.=ttrfrfrfrftt",
"tttttttsytt8ooo.@oo.o.o*ooo*@*@.@oo@ooitfrfrfrfrtt",
"tttttttyytt0o.@@.o*@*@oo*ooo.oooo*o*oo0trfrfrfrftt",
"ttttttttify5.oo*oo@*@*o.@.ooo.oo@@..oo5ttttttttttt",
"tttttttttty5o*o.*o.o.oo@oo.@*@*o*o.X*o5ttttttttttt",
"ttttttttyfy0*ooo@.ooooo*o.o*@*@.oo*oo*0ftttttttttt",
"ttttttttayy8o**@oo.@*ooo*@oo.oooo@@*ooiytttttttttt",
"ttttttttttta#.@*o.ooooo.oo@*o*@.*oooo=tttttttttttt",
"ttttttttttaa3@@o*@*o.@*@*o.oooooo.*oo1tttttttttttt",
"tttttttttttt6&oo@*@.o*@*@.ooooo*.o.o&9tttttttttttt",
"tttttttttttta2*o.ooooo.ooo.@*o.@oo..httttttttttttt",
"ttttttttttttiy-**ooo*@.Xo@oo*oo*o*o-tttttttttttttt",
"ttttttttrtttyy9&oo*ooo@@oooo*ooooo&9tttttttttttttt",
"ttttttttttttttt4&oooo..@..*@*o.oo&5ttttttttttttttt",
"tttttttttttttttt9;%o*@o*o..@ooo%-7tttttttttttttttt",
"tttttttttttaaatttth&o%ooo**oo*&gtttttttttttttttttt",
"ttttttttttttttatttt03=oooooo#10rtttttttttttttttttt",
"tttttttttttttttttattta80550pyuufttttttattttttttttt",
"ttttttttatttttttttttttttyfuryfurtttttttttttttttttt",
"tttttttttttttttttttttttttttttttttttttttttttttttttt",
"tttttttttttttttttttttttttttttttttttttttttttttttttt",
"tttttttttttttttttttttttttttttttttttttttttttttttttt",
"tttttttttttttttttttttttttttttttttttttttttttttttttt",
"tttttttttttttttttttttttttttttttttttttttttttttttttt",
"tttttttttttttttttttttttttttttttttttttttttttttttttt",
"tttttttttttttttttttttttttttttttttttttttttttttttttt",
"tttttttttttttttttttttttttttttttttttttttttttttttttt",
"tttttttttttttttttttttttttttttttttttttttttttttttttt",
"tttttttttttttttttttttttttttttttttttttttttttttttttt"
};
