/* XPM */
static char *_e77862e5c1741f2980b513f9cb6818fp2EdYbjBqKZPLfbk[] = {
/* columns rows colors chars-per-pixel */
"50 50 2 1 ",
"  c None",
". c black",
/* pixels */
"                                                  ",
"                                                  ",
"                                                  ",
"                                                  ",
"                                                  ",
"                                                  ",
"                                                  ",
"                                                  ",
"                                                  ",
"                                                  ",
"                                                  ",
"                                                  ",
"                                                  ",
"                                                  ",
"                                                  ",
"                                                  ",
"                                                  ",
"                                                  ",
"                     .......                      ",
"                   ...........                    ",
"                  .............                   ",
"                 ...............                  ",
"                .................                 ",
"                .................                 ",
"                .................                 ",
"                .................                 ",
"                .................                 ",
"                 ...............                  ",
"                  .............                   ",
"                   ...........                    ",
"                     .......                      ",
"                                                  ",
"                                                  ",
"                                                  ",
"                                                  ",
"                                                  ",
"                                                  ",
"                                                  ",
"                                                  ",
"                                                  ",
"                                                  ",
"                                                  ",
"                                                  ",
"                                                  ",
"                                                  ",
"                                                  ",
"                                                  ",
"                                                  ",
"                                                  ",
"                                                  "
};
